<?xml version="1.0" encoding="UTF-8"?>
<svg id="Capa_2" data-name="Capa 2" xmlns="http://www.w3.org/2000/svg" viewBox="0 0 1080 1080">
  <defs>
    <style>
      .cls-1, .cls-2 {
        stroke-width: 0px;
      }

      .cls-2 {
        fill: none;
      }

      .cls-3 {
        fill: #fff;
        font-family: Arial-BoldMT, Arial;
        font-size: 30.6px;
        font-weight: 700;
      }

      .cls-4 {
        letter-spacing: -.06em;
      }
    </style>
  </defs>
  <g id="Capa_5" data-name="Capa 5">
    <g>
      <!-- 801 --><polygon class="cls-1" points="853.56 915.03 853.56 829.71 546.97 832.84 546.97 918.16 853.56 915.03"/>
      <!-- 802 --><polygon class="cls-1" points="546.97 832.84 228.4 829.71 228.4 915.03 546.97 918.16 546.97 832.84"/>
      <!-- 902 --><polygon class="cls-1" points="228.4 829.71 228.4 745.58 546.97 748.71 546.97 832.84 228.4 829.71"/>
      <!-- 901 --><polygon class="cls-1" points="546.97 832.84 853.56 829.71 853.56 745.58 546.97 748.71 546.97 832.84"/>
      <!-- 1002 --><polygon class="cls-1" points="228.4 745.58 228.4 662.84 546.97 665.97 546.97 748.71 228.4 745.58"/>
      <!-- 1001 --><polygon class="cls-1" points="853.56 745.58 853.56 662.84 546.97 665.97 546.97 748.71 853.56 745.58"/>
      <!-- 1101 --><polygon class="cls-1" points="853.56 662.84 853.56 577.08 546.97 580.21 546.97 665.97 853.56 662.84"/>
      <!-- 1102 --><polygon class="cls-1" points="546.97 580.21 228.4 577.08 228.4 662.84 546.97 665.97 546.97 580.21"/>
      <!-- 1201 --><polygon class="cls-1" points="853.56 577.08 853.56 492.15 546.97 495.28 546.97 580.21 853.56 577.08"/>
      <!-- 1202 --><polygon class="cls-1" points="228.4 577.08 228.4 492.15 546.97 495.28 546.97 580.21 228.4 577.08"/>
      <!-- 1302 --><polygon class="cls-1" points="228.4 492.15 228.4 406.94 548.58 406.94 546.97 495.28 228.4 492.15"/>
      <!-- 1301 --><polygon class="cls-1" points="853.56 492.15 853.56 404.92 548.58 406.94 546.97 495.28 853.56 492.15"/>
      <!-- 1402 --><polygon class="cls-1" points="228.4 406.94 228.4 322.93 548.58 324.95 548.58 406.94 228.4 406.94"/>
      <!-- 1401 --><polygon class="cls-1" points="853.56 404.92 853.56 320.51 548.58 324.95 548.58 406.94 853.56 404.92"/>
      <!-- 1502 --><polygon class="cls-1" points="228.4 322.93 228.4 236.9 548.58 238.92 548.58 324.95 228.4 322.93"/>
      <!-- 1501 --><polygon class="cls-1" points="853.56 320.51 853.56 235.14 548.58 238.92 548.58 324.95 853.56 320.51"/>
      <!-- 1602 --><polygon class="cls-1" points="228.4 236.9 228.4 150.27 548.58 153.13 548.58 238.92 228.4 236.9"/>
      <!-- 1601 --><polygon class="cls-1" points="548.58 153.13 858.51 150.27 853.56 235.14 548.58 238.92 548.58 153.13"/>
      
      <text class="cls-3" transform="translate(362.16 881.3)"><tspan x="0" y="0">802</tspan></text>
      <text class="cls-3" transform="translate(674.74 888.08)"><tspan x="0" y="0">801</tspan></text>
      <text class="cls-3" transform="translate(362.16 796.57)"><tspan x="0" y="0">902</tspan></text>
      <text class="cls-3" transform="translate(674.74 798.49)"><tspan x="0" y="0">901</tspan></text>
      <text class="cls-3" transform="translate(353.65 713.14)"><tspan x="0" y="0">1002</tspan></text>
      <text class="cls-3" transform="translate(666.23 715.9)"><tspan x="0" y="0">1001</tspan></text>
      <text class="cls-3" transform="translate(354.49 628.89)">1102</text>
      <text class="cls-3" transform="translate(667.08 631.25)">1101</text>
      <text class="cls-3" transform="translate(353.65 543.55)"><tspan x="0" y="0">1202</tspan></text>
      <text class="cls-3" transform="translate(666.23 546.57)"><tspan x="0" y="0">1201</tspan></text>
      <text class="cls-3" transform="translate(354.45 458.48)"><tspan x="0" y="0">1302</tspan></text>
      <text class="cls-3" transform="translate(666.23 463)"><tspan x="0" y="0">1301</tspan></text>
      <text class="cls-3" transform="translate(354.45 372.3)"><tspan x="0" y="0">1402</tspan></text>
      <text class="cls-3" transform="translate(667.04 378.82)"><tspan x="0" y="0">1401</tspan></text>
      <text class="cls-3" transform="translate(354.45 288.29)"><tspan x="0" y="0">1502</tspan></text>
      <text class="cls-3" transform="translate(667.04 294.95)"><tspan x="0" y="0">1501</tspan></text>
      <text class="cls-3" transform="translate(354.45 201.96)"><tspan x="0" y="0">1602</tspan></text>
      <text class="cls-3" transform="translate(669.51 204.39)"><tspan x="0" y="0">1601</tspan></text>
      <rect class="cls-2" width="1080" height="1080"/>
    </g>
  </g>
</svg>