<?xml version="1.0" encoding="UTF-8"?>
<svg id="Capa_2" data-name="Capa 2" xmlns="http://www.w3.org/2000/svg" viewBox="0 0 1446 1920">
  <defs>
    <style>
      .cls-1 {
        fill: #fff;
        font-family: Arial-BoldMT, Arial;
        font-size: 36px;
        font-weight: 700;
      }

      .cls-2, .cls-3 {
        stroke-width: 0px;
      }

      .cls-3 {
        fill: none;
      }
    </style>
  </defs>
  <g id="Capa_2-2" data-name="Capa 2">
    <g>
      <!-- Torre A1 --><polygon class="cls-2" points="749.83 1560.41 1139.19 1560.44 1147.36 1183.78 746.46 1183.78 749.83 1560.41"/>
      <!-- Torre A2 --><polygon class="cls-2" points="1147.36 1183.78 1152.14 695.75 751.5 695.75 746.46 1183.78 1147.36 1183.78"/>
      <!-- Torre A3 --><polygon class="cls-2" points="1152.14 695.75 751.5 695.75 748.17 195.56 1160.93 197.71 1152.14 695.75"/>
      <!-- Torre E --><polygon class="cls-2" points="1137.91 1694.37 1139.19 1560.44 749.83 1560.41 237.68 1564.17 237.68 1694.37 1137.91 1694.37"/>
      <!-- TORRE B1 --><polygon class="cls-2" points="748.78 1442.91 685.43 1442.91 685.43 1425.22 631.88 1425.22 631.88 1399.96 583.88 1399.96 583.88 1379.75 537.4 1379.75 537.4 1352.47 488.9 1352.47 488.9 1332.77 455.55 1332.77 452.52 1076.11 496.48 1076.11 496.48 1087.23 537.4 1087.23 537.4 1097.84 583.38 1097.84 583.38 1109.46 627.33 1109.46 627.33 1120.57 683.92 1120.57 683.92 1132.7 746.46 1132.7 748.78 1442.91"/>
      <!-- TORRE B2 --><polygon class="cls-2" points="452.52 1076.11 452.52 727.08 493.97 727.08 493.97 721.91 532.74 721.91 532.74 718.47 581.85 718.47 581.85 714.16 630.53 714.16 630.53 712.01 684.8 712.01 684.8 708.56 751.36 708.56 746.46 1132.7 683.92 1132.7 683.92 1120.57 627.33 1120.57 627.33 1109.46 583.38 1109.46 583.38 1097.84 537.4 1097.84 537.4 1087.23 496.48 1087.23 496.48 1076.11 452.52 1076.11"/>
      <!-- TORRE B3 --><polygon class="cls-2" points="452.52 727.08 450.64 370.61 491.4 370.61 491.4 353.09 532.97 353.09 532.97 337.19 581.05 337.19 581.05 318.45 631.18 318.45 631.18 300.52 683.75 300.52 683.75 278.1 748.72 278.1 751.36 708.56 684.8 708.56 684.8 712.01 630.53 712.01 630.53 714.16 581.85 714.16 581.85 718.47 532.74 718.47 532.74 721.91 493.97 721.91 493.97 727.08 452.52 727.08"/>
      <text class="cls-1" transform="translate(909.55 1340.78)"><tspan x="0" y="0">Torre A1</tspan></text>
      <text class="cls-1" transform="translate(643.22 1621.39)"><tspan x="0" y="0">Torre E</tspan></text>
      <text class="cls-1" transform="translate(909.55 918.85)"><tspan x="0" y="0">Torre A2</tspan></text>
      <text class="cls-1" transform="translate(909.32 380.73)"><tspan x="0" y="0">A3</tspan></text>
      <text class="cls-1" transform="translate(552.68 1216.67)"><tspan x="0" y="0">B1</tspan></text>
      <text class="cls-1" transform="translate(552.68 865.21)"><tspan x="0" y="0">b2</tspan></text>
      <text class="cls-1" transform="translate(552.68 466.66)"><tspan x="0" y="0">b3</tspan></text>
      <rect class="cls-3" width="1446" height="1920"/>
    </g>
  </g>
</svg>