<?xml version="1.0" encoding="UTF-8"?>
<svg id="Capa_2" width="160px" class="h-8" data-name="Capa 2" xmlns="http://www.w3.org/2000/svg" viewBox="0 0 464.81 149.81">
  <defs>
    <style>
      .cls-1 {
        fill: #1275ba;
        stroke-width: 0px;
      }
    </style>
  </defs>
  <g id="Capa_1-2" data-name="Capa 1">
    <g>
      <g>
        <rect class="cls-1" x="100.62" y="11.99" width="9.64" height="68.8"/>
        <rect class="cls-1" x="172.68" y="11.99" width="9.64" height="68.8"/>
        <path class="cls-1" d="m136.46,13.27v76.57h10.03V13.27c.02-1.97,1.25-4.64,1.91-5.88l-7.02-7.39-6.9,7.39c.65,1.02,1.97,3.99,1.97,5.88Z"/>
      </g>
      <g>
        <path class="cls-1" d="m33,80.32h-10.71V16.3h-4.64c-6.92,0-12.8.74-17.66,2.21v-7.17h55.19v7.17c-4.86-1.47-10.75-2.21-17.66-2.21h-4.53v64.02Z"/>
        <path class="cls-1" d="m188.02,76.58h5.27c3.25,0,6.58-.49,9.98-1.47,3.4-.98,6.46-2.67,9.19-5.05,2.72-2.38,4.97-5.48,6.75-9.3,1.78-3.82,2.67-8.26,2.67-13.33,0-4.69-.72-8.98-2.15-12.87-1.44-3.89-3.57-7.26-6.41-10.09-2.84-2.84-6.35-5.01-10.55-6.52-4.2-1.51-8.94-2.27-14.23-2.27v-5.24l2.84-.09c6.12-.15,11.81.62,17.07,2.32,5.25,1.7,9.75,4.12,13.5,7.26,3.74,3.14,6.62,6.86,8.62,11.17,2,4.31,3.01,8.89,3.01,13.72,0,7.11-1.74,13.59-5.22,19.45-3.48,5.86-8.45,10.32-14.91,13.38-6.46,3.06-13.97,4.48-22.51,4.25l-2.89-.08v-5.25Z"/>
        <path class="cls-1" d="m282.8,80.43h-42.01V11.33h42.01v7.19c-2.51-.74-5.2-1.29-8.07-1.66-2.87-.37-6.74-.55-11.61-.55h-11.72v26.53h22.44v4.98h-22.44v27.64h11.72c3.61,0,6.97-.13,10.06-.39,3.1-.26,6.3-.87,9.62-1.82v7.19Z"/>
        <path class="cls-1" d="m347.18,81.23h-11.34l-36.29-58.75h-.68v58.18h-6.01V10.24l11.57-.91,35.95,58.52h.79V9.78h6.01v71.45Z"/>
        <path class="cls-1" d="m389.7,80.32h-10.71V16.3h-4.64c-6.92,0-12.8.74-17.66,2.21v-7.17h55.19v7.17c-4.86-1.47-10.75-2.21-17.66-2.21h-4.53v64.02Z"/>
        <path class="cls-1" d="m464.81,80.97h-11.31l-7.32-22.74h-24.51l-7.32,22.74h-5.88l20.85-63.44v-3.55l11.98-4.66,23.51,71.65Zm-20.3-27.73l-10.2-31.83h-.78l-10.31,31.83h21.29Z"/>
        <path class="cls-1" d="m94.9,46.16c-1.79.25-4.83,0-6.98,0-2.29,0-4.42-.28-6.38-.83-1.96-.55-3.72-1.33-5.27-2.33-1.55-1-2.92-2.48-4.1-4.44-1.18-1.96-1.78-4.38-1.78-7.27,0-4.81,1.41-8.43,4.22-10.87,2.81-2.44,6.95-3.66,12.42-3.66h7.86v-5.01l-10.86-.2c-3.11-.07-6.19.17-9.26.72-3.07.55-5.75,1.52-8.04,2.88-2.29,1.37-4.14,3.2-5.55,5.49-1.4,2.29-2.11,5.07-2.11,8.32,0,2.15.46,4.53,1.39,7.15.93,2.63,2.68,5.08,5.27,7.38,2.59,2.29,5.73,4.03,9.43,5.21l-20.08,32.5h12.31l17.86-29.84,9.64-.29v-4.93Z"/>
      </g>
      <g>
        <path class="cls-1" d="m150.64,149.07h-4.79v-28.66h-2.08c-3.1,0-5.73.33-7.91.99v-3.21h24.71v3.21c-2.17-.66-4.81-.99-7.91-.99h-2.03v28.66Z"/>
        <path class="cls-1" d="m179.99,149.81c-2.21,0-4.28-.39-6.23-1.16-1.94-.77-3.64-1.88-5.09-3.31-1.45-1.43-2.57-3.14-3.36-5.11s-1.19-4.1-1.19-6.37.41-4.27,1.24-6.28c.82-2.01,1.97-3.77,3.43-5.29,1.47-1.52,3.18-2.7,5.14-3.56,1.96-.86,4.03-1.29,6.2-1.29,1.65,0,3.24.22,4.77.67,1.53.44,2.94,1.08,4.23,1.9,1.28.82,2.49,1.93,3.61,3.31,1.12,1.38,1.95,2.99,2.5,4.82s.82,3.58.82,5.26c0,2.17-.41,4.27-1.24,6.28-.82,2.01-1.98,3.77-3.46,5.29-1.48,1.52-3.2,2.7-5.16,3.56-1.96.86-4.03,1.29-6.2,1.29Zm.15-2.17c1.45,0,2.83-.3,4.15-.91,1.32-.61,2.48-1.51,3.48-2.69,1-1.19,1.79-2.64,2.35-4.37.56-1.73.84-3.63.84-5.71s-.29-4.06-.86-5.85c-.58-1.79-1.38-3.32-2.4-4.57-1.02-1.25-2.21-2.21-3.56-2.89-1.35-.67-2.75-1.01-4.2-1.01s-2.83.31-4.15.91c-1.32.61-2.47,1.51-3.46,2.69-.99,1.19-1.76,2.64-2.32,4.35-.56,1.71-.84,3.61-.84,5.68s.29,4.11.86,5.9c.58,1.8,1.38,3.32,2.4,4.57,1.02,1.25,2.2,2.22,3.53,2.89,1.33.68,2.73,1.01,4.18,1.01Z"/>
        <path class="cls-1" d="m232.12,149.17h-3.01l-7.26-19.96h-.25l-7.12,19.96h-3.06l-9.93-30.98h5.09l7.61,24.76h.2l6.18-17.39-2.67-7.36h4.99l8.6,24.76h.2l7.76-24.76h2.62l-9.93,30.98Z"/>
        <path class="cls-1" d="m268.39,149.07h-18.78v-30.88h18.78v3.21c-1.12-.33-2.32-.58-3.61-.74-1.28-.16-3.01-.25-5.19-.25h-5.24v11.86h10.03v2.22h-10.03v12.35h5.24c1.61,0,3.11-.06,4.5-.17,1.38-.12,2.82-.39,4.3-.82v3.21Z"/>
        <path class="cls-1" d="m300.8,149.07h-5.48l-7.96-13.29-4.3-.15v13.44h-4.79v-30.83l9.64-.2c1.38-.03,2.76.07,4.13.32,1.37.25,2.56.68,3.58,1.28,1.02.61,1.84,1.42,2.47,2.45.62,1.02.94,2.26.94,3.71,0,.96-.21,2.02-.62,3.19-.41,1.17-1.19,2.27-2.35,3.29-1.15,1.02-2.55,1.8-4.2,2.32l8.94,14.48Zm-14.23-28.71h-3.51v12.85c.92.17,1.96.25,3.11.25,1.02,0,1.97-.12,2.84-.37.87-.25,1.66-.59,2.35-1.04.69-.44,1.3-1.1,1.83-1.98.53-.87.79-1.95.79-3.24,0-2.14-.63-3.75-1.88-4.84-1.25-1.09-3.1-1.63-5.53-1.63Z"/>
        <path class="cls-1" d="m308.22,147.78l1.04-3.41c1.35,1.05,2.71,1.86,4.08,2.42,1.37.56,2.81.84,4.32.84.89,0,1.76-.12,2.62-.35.86-.23,1.65-.62,2.37-1.16.72-.54,1.25-1.22,1.58-2.03.33-.81.49-1.54.49-2.2,0-1.65-.67-2.99-2-4.03-1.33-1.04-3.37-2.02-6.1-2.94-3.03-1.02-5.21-2.25-6.55-3.68-1.33-1.43-2-3.22-2-5.36,0-1.05.21-2.08.62-3.09.41-1,1.05-1.91,1.9-2.72.86-.81,1.96-1.45,3.31-1.93,1.35-.48,2.9-.72,4.64-.72s3.37.17,5.06.52c1.7.35,3.01.75,3.93,1.21l-1.04,3.31c-2.44-1.91-5.21-2.87-8.3-2.87-.89,0-1.82.17-2.79.52-.97.35-1.77.94-2.4,1.78-.63.84-.94,1.74-.94,2.69,0,1.45.55,2.67,1.66,3.66,1.1.99,3.09,1.99,5.95,3.01,3.39,1.22,5.78,2.56,7.17,4.03,1.38,1.47,2.08,3.29,2.08,5.46,0,1.19-.23,2.32-.69,3.41-.46,1.09-1.16,2.05-2.1,2.89-.94.84-2.15,1.51-3.63,2-1.48.49-3.2.74-5.14.74-1.19,0-2.68-.17-4.47-.49-1.8-.33-3.35-.84-4.67-1.53Z"/>
      </g>
    </g>
  </g>
</svg>