<?xml version="1.0" encoding="UTF-8"?>
<svg id="Capa_2" data-name="Capa 2" xmlns="http://www.w3.org/2000/svg" viewBox="0 0 1080 1080">
  <defs>
    <style>
      .cls-1, .cls-2 {
        stroke-width: 0px;
      }

      .cls-3 {
        fill: #fff;
        font-family: Arial-BoldMT, Arial;
        font-size: 29.48px;
        font-weight: 700;
      }

      .cls-2 {
        fill: none;
      }
    </style>
  </defs>
  <g id="Capa_4" data-name="Capa 4">
    <polygon class="cls-1" points="695.37 658.17 972.41 658.17 972.41 738.44 691.88 738.44 695.37 658.17"/>
    <polygon class="cls-1" points="972.41 580.51 972.41 658.17 695.37 658.17 693.63 576.94 972.41 580.51"/>
    <polygon class="cls-1" points="693.63 576.94 396.47 576.94 398.97 660.45 695.37 658.17 693.63 576.94"/>
    <polygon class="cls-1" points="691.88 738.44 396.47 738.44 398.97 660.45 695.37 658.17 691.88 738.44"/>
    <polygon class="cls-1" points="396.47 576.94 119.1 581.63 119.1 658.17 398.97 660.45 396.47 576.94"/>
    <polygon class="cls-1" points="396.47 738.44 119.1 740.6 119.1 658.17 398.97 660.45 396.47 738.44"/>
    <text class="cls-3" transform="translate(242.64 630.89)"><tspan x="0" y="0">24</tspan></text>
    <text class="cls-3" transform="translate(242.64 708.91)"><tspan x="0" y="0">14</tspan></text>
    <text class="cls-3" transform="translate(529.53 630.89)"><tspan x="0" y="0">25</tspan></text>
    <text class="cls-3" transform="translate(529.53 708.91)"><tspan x="0" y="0">15</tspan></text>
    <text class="cls-3" transform="translate(816.62 630.89)"><tspan x="0" y="0">26</tspan></text>
    <text class="cls-3" transform="translate(816.62 708.91)"><tspan x="0" y="0">16</tspan></text>
    <rect class="cls-2" width="1080" height="1080"/>
  </g>
</svg>