<?xml version="1.0" encoding="UTF-8"?>
<svg xmlns="http://www.w3.org/2000/svg" viewBox="0 0 1601 1601">
  <defs>
    <style>
      .cls-1 {
        font-size: 32px;
      }

      .cls-1, .cls-2 {
        fill: #fff;
        font-family: MyriadPro-Regular, 'Myriad Pro';
      }

      .cls-2 {
        font-size: 39.15px;
      }

      .cls-3, .cls-4 {
        fill: none;
        stroke: #fff;
        stroke-miterlimit: 10;
      }

      .cls-5 {
        fill: #00923d;
        mix-blend-mode: multiply;
      }

      .cls-4 {
        stroke-width: 5px;
      }

      .cls-6 {
        isolation: isolate;
      }
    </style>
  </defs>
  <g class="cls-6">
    <g id="Capa_2" data-name="Capa 2">
      <g id="VB_-_Front" data-name="VB - Front">
        <g>
          <rect class="cls-3" x=".5" y=".5" width="1600" height="1600"/>
          <g>
            <g>
              <polygon class="cls-5" points="419.24 995.97 229.04 1005.78 229.04 1095.08 419.24 1085.52 419.24 995.97"/>
              <polygon class="cls-4" points="419.24 995.97 229.04 1005.78 229.04 1095.08 419.24 1085.52 419.24 995.97"/>
            </g>
            <g>
              <polygon class="cls-5" points="419.24 905.49 229.04 916.31 229.04 1005.78 419.24 995.97 419.24 905.49"/>
              <polygon class="cls-4" points="419.24 905.49 229.04 916.31 229.04 1005.78 419.24 995.97 419.24 905.49"/>
            </g>
            <g>
              <polygon class="cls-5" points="419.24 723.25 229.04 734.82 229.04 827.82 419.24 816.63 419.24 723.25"/>
              <polygon class="cls-4" points="419.24 723.25 229.04 734.82 229.04 827.82 419.24 816.63 419.24 723.25"/>
            </g>
            <g>
              <polygon class="cls-5" points="419.24 543.61 229.04 556.81 229.04 645.88 419.24 633.18 419.24 543.61"/>
              <polygon class="cls-4" points="419.24 543.61 229.04 556.81 229.04 645.88 419.24 633.18 419.24 543.61"/>
            </g>
            <g>
              <polygon class="cls-5" points="419.24 633.18 229.04 645.88 229.04 734.82 419.24 723.25 419.24 633.18"/>
              <polygon class="cls-4" points="419.24 633.18 229.04 645.88 229.04 734.82 419.24 723.25 419.24 633.18"/>
            </g>
            <g>
              <polygon class="cls-5" points="419.24 451.03 229.04 463.73 229.04 556.81 419.24 543.61 419.24 451.03"/>
              <polygon class="cls-4" points="419.24 451.03 229.04 463.73 229.04 556.81 419.24 543.61 419.24 451.03"/>
            </g>
            <g>
              <polygon class="cls-5" points="419.24 346.33 229.04 346.33 229.04 463.73 419.24 451.03 419.24 346.33"/>
              <polygon class="cls-4" points="419.24 346.33 229.04 346.33 229.04 463.73 419.24 451.03 419.24 346.33"/>
            </g>
            <g>
              <polygon class="cls-5" points="419.24 816.63 229.04 827.82 229.04 916.31 419.24 905.49 419.24 816.63"/>
              <polygon class="cls-4" points="419.24 816.63 229.04 827.82 229.04 916.31 419.24 905.49 419.24 816.63"/>
            </g>
            <g>
              <polygon class="cls-5" points="419.24 1085.52 229.04 1095.08 229.04 1187.52 419.24 1178.34 419.24 1085.52"/>
              <polygon class="cls-4" points="419.24 1085.52 229.04 1095.08 229.04 1187.52 419.24 1178.34 419.24 1085.52"/>
            </g>
            <g>
              <polygon class="cls-5" points="685.07 890.38 419.24 905.49 419.24 995.97 685.07 982.26 685.07 890.38"/>
              <polygon class="cls-4" points="685.07 890.38 419.24 905.49 419.24 995.97 685.07 982.26 685.07 890.38"/>
            </g>
            <g>
              <polygon class="cls-5" points="685.07 433.28 685.07 314.98 419.24 314.98 419.24 346.33 419.24 451.03 685.07 433.28"/>
              <polygon class="cls-4" points="685.07 433.28 685.07 314.98 419.24 314.98 419.24 346.33 419.24 451.03 685.07 433.28"/>
            </g>
            <g>
              <polygon class="cls-5" points="685.07 1072.16 419.24 1085.52 419.24 1178.34 685.07 1165.51 685.07 1072.16"/>
              <polygon class="cls-4" points="685.07 1072.16 419.24 1085.52 419.24 1178.34 685.07 1165.51 685.07 1072.16"/>
            </g>
            <g>
              <polygon class="cls-5" points="685.07 800.99 419.24 816.63 419.24 905.49 685.07 890.38 685.07 800.99"/>
              <polygon class="cls-4" points="685.07 800.99 419.24 816.63 419.24 905.49 685.07 890.38 685.07 800.99"/>
            </g>
            <g>
              <polygon class="cls-5" points="685.07 982.26 419.24 995.97 419.24 1085.52 685.07 1072.16 685.07 982.26"/>
              <polygon class="cls-4" points="685.07 982.26 419.24 995.97 419.24 1085.52 685.07 1072.16 685.07 982.26"/>
            </g>
            <g>
              <polygon class="cls-5" points="685.07 525.15 419.24 543.61 419.24 633.18 685.07 615.43 685.07 525.15"/>
              <polygon class="cls-4" points="685.07 525.15 419.24 543.61 419.24 633.18 685.07 615.43 685.07 525.15"/>
            </g>
            <g>
              <polygon class="cls-5" points="685.07 433.28 419.24 451.03 419.24 543.61 685.07 525.15 685.07 433.28"/>
              <polygon class="cls-4" points="685.07 433.28 419.24 451.03 419.24 543.61 685.07 525.15 685.07 433.28"/>
            </g>
            <g>
              <polygon class="cls-5" points="685.07 615.43 419.24 633.18 419.24 723.25 685.07 707.09 685.07 615.43"/>
              <polygon class="cls-4" points="685.07 615.43 419.24 633.18 419.24 723.25 685.07 707.09 685.07 615.43"/>
            </g>
            <g>
              <polygon class="cls-5" points="685.07 707.09 419.24 723.25 419.24 816.63 685.07 800.99 685.07 707.09"/>
              <polygon class="cls-4" points="685.07 707.09 419.24 723.25 419.24 816.63 685.07 800.99 685.07 707.09"/>
            </g>
            <g>
              <polygon class="cls-5" points="950.9 968.55 685.07 982.26 685.07 1072.16 950.9 1058.8 950.9 968.55"/>
              <polygon class="cls-4" points="950.9 968.55 685.07 982.26 685.07 1072.16 950.9 1058.8 950.9 968.55"/>
            </g>
            <g>
              <polygon class="cls-5" points="950.9 785.35 685.07 800.99 685.07 890.38 950.9 875.26 950.9 785.35"/>
              <polygon class="cls-4" points="950.9 785.35 685.07 800.99 685.07 890.38 950.9 875.26 950.9 785.35"/>
            </g>
            <g>
              <polygon class="cls-5" points="950.9 597.69 685.07 615.43 685.07 707.09 950.9 690.92 950.9 597.69"/>
              <polygon class="cls-4" points="950.9 597.69 685.07 615.43 685.07 707.09 950.9 690.92 950.9 597.69"/>
            </g>
            <g>
              <polygon class="cls-5" points="950.9 506.7 685.07 525.15 685.07 615.43 950.9 597.69 950.9 506.7"/>
              <polygon class="cls-4" points="950.9 506.7 685.07 525.15 685.07 615.43 950.9 597.69 950.9 506.7"/>
            </g>
            <g>
              <polygon class="cls-5" points="950.9 690.92 685.07 707.09 685.07 800.99 950.9 785.35 950.9 690.92"/>
              <polygon class="cls-4" points="950.9 690.92 685.07 707.09 685.07 800.99 950.9 785.35 950.9 690.92"/>
            </g>
            <g>
              <polygon class="cls-5" points="950.9 875.26 685.07 890.38 685.07 982.26 950.9 968.55 950.9 875.26"/>
              <polygon class="cls-4" points="950.9 875.26 685.07 890.38 685.07 982.26 950.9 968.55 950.9 875.26"/>
            </g>
            <g>
              <polygon class="cls-5" points="950.9 1058.8 685.07 1072.16 685.07 1165.51 950.9 1152.67 950.9 1058.8"/>
              <polygon class="cls-4" points="950.9 1058.8 685.07 1072.16 685.07 1165.51 950.9 1152.67 950.9 1058.8"/>
            </g>
            <g>
              <polygon class="cls-5" points="950.9 506.7 950.9 415.53 685.07 433.28 685.07 525.15 950.9 506.7"/>
              <polygon class="cls-4" points="950.9 506.7 950.9 415.53 685.07 433.28 685.07 525.15 950.9 506.7"/>
            </g>
            <g>
              <polygon class="cls-5" points="950.9 415.53 950.9 285.33 685.07 285.33 685.07 314.98 685.07 433.28 950.9 415.53"/>
              <polygon class="cls-4" points="950.9 415.53 950.9 285.33 685.07 285.33 685.07 314.98 685.07 433.28 950.9 415.53"/>
            </g>
            <g>
              <polygon class="cls-5" points="950.9 1152.67 1031.67 1148.78 1031.67 1054.74 950.9 1058.8 950.9 1152.67"/>
              <polygon class="cls-4" points="950.9 1152.67 1031.67 1148.78 1031.67 1054.74 950.9 1058.8 950.9 1152.67"/>
            </g>
            <g>
              <polygon class="cls-5" points="950.9 1058.8 1031.67 1054.74 1031.67 964.38 950.9 968.55 950.9 1058.8"/>
              <polygon class="cls-4" points="950.9 1058.8 1031.67 1054.74 1031.67 964.38 950.9 968.55 950.9 1058.8"/>
            </g>
            <g>
              <polygon class="cls-5" points="1031.67 410.14 1031.67 272.62 950.9 272.62 950.9 285.33 950.9 415.53 1031.67 410.14"/>
              <polygon class="cls-4" points="1031.67 410.14 1031.67 272.62 950.9 272.62 950.9 285.33 950.9 415.53 1031.67 410.14"/>
            </g>
            <g>
              <polygon class="cls-5" points="950.9 875.26 1031.67 870.67 1031.67 780.6 950.9 785.35 950.9 875.26"/>
              <polygon class="cls-4" points="950.9 875.26 1031.67 870.67 1031.67 780.6 950.9 785.35 950.9 875.26"/>
            </g>
            <g>
              <polygon class="cls-5" points="950.9 690.92 1031.67 686 1031.67 592.29 950.9 597.69 950.9 690.92"/>
              <polygon class="cls-4" points="950.9 690.92 1031.67 686 1031.67 592.29 950.9 597.69 950.9 690.92"/>
            </g>
            <g>
              <polygon class="cls-5" points="1031.67 501.1 1031.67 410.14 950.9 415.53 950.9 506.7 1031.67 501.1"/>
              <polygon class="cls-4" points="1031.67 501.1 1031.67 410.14 950.9 415.53 950.9 506.7 1031.67 501.1"/>
            </g>
            <g>
              <polygon class="cls-5" points="950.9 785.35 1031.67 780.6 1031.67 686 950.9 690.92 950.9 785.35"/>
              <polygon class="cls-4" points="950.9 785.35 1031.67 780.6 1031.67 686 950.9 690.92 950.9 785.35"/>
            </g>
            <g>
              <polygon class="cls-5" points="950.9 597.69 1031.67 592.29 1031.67 501.1 950.9 506.7 950.9 597.69"/>
              <polygon class="cls-4" points="950.9 597.69 1031.67 592.29 1031.67 501.1 950.9 506.7 950.9 597.69"/>
            </g>
            <g>
              <polygon class="cls-5" points="950.9 968.55 1031.67 964.38 1031.67 870.67 950.9 875.26 950.9 968.55"/>
              <polygon class="cls-4" points="950.9 968.55 1031.67 964.38 1031.67 870.67 950.9 875.26 950.9 968.55"/>
            </g>
            <g>
              <polygon class="cls-5" points="1031.67 870.67 1222.59 859.81 1222.59 769.36 1031.67 780.6 1031.67 870.67"/>
              <polygon class="cls-4" points="1031.67 870.67 1222.59 859.81 1222.59 769.36 1031.67 780.6 1031.67 870.67"/>
            </g>
            <g>
              <polygon class="cls-5" points="1031.67 686 1222.59 674.39 1222.59 579.55 1031.67 592.29 1031.67 686"/>
              <polygon class="cls-4" points="1031.67 686 1222.59 674.39 1222.59 579.55 1031.67 592.29 1031.67 686"/>
            </g>
            <g>
              <polygon class="cls-5" points="1222.59 397.39 1222.59 272.62 1222.59 254.83 1031.67 254.83 1031.67 272.62 1031.67 410.14 1222.59 397.39"/>
              <polygon class="cls-4" points="1222.59 397.39 1222.59 272.62 1222.59 254.83 1031.67 254.83 1031.67 272.62 1031.67 410.14 1222.59 397.39"/>
            </g>
            <g>
              <polygon class="cls-5" points="1031.67 780.6 1222.59 769.36 1222.59 674.39 1031.67 686 1031.67 780.6"/>
              <polygon class="cls-4" points="1031.67 780.6 1222.59 769.36 1222.59 674.39 1031.67 686 1031.67 780.6"/>
            </g>
            <g>
              <polygon class="cls-5" points="1031.67 410.14 1031.67 501.1 1222.59 487.85 1222.59 397.39 1031.67 410.14"/>
              <polygon class="cls-4" points="1031.67 410.14 1031.67 501.1 1222.59 487.85 1222.59 397.39 1031.67 410.14"/>
            </g>
            <g>
              <polygon class="cls-5" points="1031.67 592.29 1222.59 579.55 1222.59 487.85 1031.67 501.1 1031.67 592.29"/>
              <polygon class="cls-4" points="1031.67 592.29 1222.59 579.55 1222.59 487.85 1031.67 501.1 1031.67 592.29"/>
            </g>
            <g>
              <polygon class="cls-5" points="1031.67 1148.78 1222.59 1139.56 1222.59 1045.15 1031.67 1054.74 1031.67 1148.78"/>
              <polygon class="cls-4" points="1031.67 1148.78 1222.59 1139.56 1222.59 1045.15 1031.67 1054.74 1031.67 1148.78"/>
            </g>
            <g>
              <polygon class="cls-5" points="1031.67 964.38 1222.59 954.54 1222.59 859.81 1031.67 870.67 1031.67 964.38"/>
              <polygon class="cls-4" points="1031.67 964.38 1222.59 954.54 1222.59 859.81 1031.67 870.67 1031.67 964.38"/>
            </g>
            <g>
              <polygon class="cls-5" points="1031.67 1054.74 1222.59 1045.15 1222.59 954.54 1031.67 964.38 1031.67 1054.74"/>
              <polygon class="cls-4" points="1031.67 1054.74 1222.59 1045.15 1222.59 954.54 1031.67 964.38 1031.67 1054.74"/>
            </g>
            <g>
              <polygon class="cls-5" points="1222.59 769.36 1413.5 758.13 1413.5 662.78 1222.59 674.39 1222.59 769.36"/>
              <polygon class="cls-4" points="1222.59 769.36 1413.5 758.13 1413.5 662.78 1222.59 674.39 1222.59 769.36"/>
            </g>
            <g>
              <polygon class="cls-5" points="1222.59 674.39 1413.5 662.78 1413.5 566.8 1222.59 579.55 1222.59 674.39"/>
              <polygon class="cls-4" points="1222.59 674.39 1413.5 662.78 1413.5 566.8 1222.59 579.55 1222.59 674.39"/>
            </g>
            <g>
              <polygon class="cls-5" points="1222.59 487.85 1222.59 579.55 1413.5 566.8 1413.5 474.59 1222.59 487.85"/>
              <polygon class="cls-4" points="1222.59 487.85 1222.59 579.55 1413.5 566.8 1413.5 474.59 1222.59 487.85"/>
            </g>
            <g>
              <polygon class="cls-5" points="1222.59 954.54 1413.5 944.69 1413.5 848.96 1222.59 859.81 1222.59 954.54"/>
              <polygon class="cls-4" points="1222.59 954.54 1413.5 944.69 1413.5 848.96 1222.59 859.81 1222.59 954.54"/>
            </g>
            <g>
              <polygon class="cls-5" points="1222.59 1139.56 1413.5 1130.34 1413.5 1035.56 1222.59 1045.15 1222.59 1139.56"/>
              <polygon class="cls-4" points="1222.59 1139.56 1413.5 1130.34 1413.5 1035.56 1222.59 1045.15 1222.59 1139.56"/>
            </g>
            <g>
              <polygon class="cls-5" points="1222.59 859.81 1413.5 848.96 1413.5 758.13 1222.59 769.36 1222.59 859.81"/>
              <polygon class="cls-4" points="1222.59 859.81 1413.5 848.96 1413.5 758.13 1222.59 769.36 1222.59 859.81"/>
            </g>
            <g>
              <polygon class="cls-5" points="1222.59 1045.15 1413.5 1035.56 1413.5 944.69 1222.59 954.54 1222.59 1045.15"/>
              <polygon class="cls-4" points="1222.59 1045.15 1413.5 1035.56 1413.5 944.69 1222.59 954.54 1222.59 1045.15"/>
            </g>
            <g>
              <polygon class="cls-5" points="1413.5 384.64 1413.5 272.62 1222.59 272.62 1222.59 397.39 1413.5 384.64"/>
              <polygon class="cls-4" points="1413.5 384.64 1413.5 272.62 1222.59 272.62 1222.59 397.39 1413.5 384.64"/>
            </g>
            <g>
              <polygon class="cls-5" points="1222.59 487.85 1413.5 474.59 1413.5 384.64 1222.59 397.39 1222.59 487.85"/>
              <polygon class="cls-4" points="1222.59 487.85 1413.5 474.59 1413.5 384.64 1222.59 397.39 1222.59 487.85"/>
            </g>
          </g>
          <g>
            <text class="cls-2" transform="translate(1268.57 1016.9)"><tspan x="0" y="0">2101</tspan></text>
            <text class="cls-2" transform="translate(1081.03 1019.87)"><tspan x="0" y="0">2103</tspan></text>
            <text class="cls-2" transform="translate(777.36 1032.98)"><tspan x="0" y="0">2107</tspan></text>
            <text class="cls-2" transform="translate(516.23 1045.75)"><tspan x="0" y="0">2109</tspan></text>
            <text class="cls-2" transform="translate(292.25 1058.66)"><tspan x="0" y="0">2111</tspan></text>
            <text class="cls-2" transform="translate(1268.57 924.51)"><tspan x="0" y="0">2201</tspan></text>
            <text class="cls-2" transform="translate(1081.03 926.06)"><tspan x="0" y="0">2203</tspan></text>
            <text class="cls-1" transform="translate(958.92 931.12)"><tspan x="0" y="0">2205</tspan></text>
            <text class="cls-1" transform="translate(958.92 1025.13)"><tspan x="0" y="0">2105</tspan></text>
            <text class="cls-2" transform="translate(1268.57 1102.88)"><tspan x="0" y="0">2001</tspan></text>
            <text class="cls-2" transform="translate(1081.03 1113.68)"><tspan x="0" y="0">2003</tspan></text>
            <text class="cls-2" transform="translate(777.36 1125.9)"><tspan x="0" y="0">2007</tspan></text>
            <text class="cls-2" transform="translate(516.23 1139.56)"><tspan x="0" y="0">2009</tspan></text>
            <text class="cls-2" transform="translate(292.25 1151.78)"><tspan x="0" y="0">2011</tspan></text>
            <text class="cls-1" transform="translate(959.92 1119.15)"><tspan x="0" y="0">2005</tspan></text>
            <text class="cls-2" transform="translate(777.36 940.06)"><tspan x="0" y="0">2207</tspan></text>
            <text class="cls-2" transform="translate(516.23 951.94)"><tspan x="0" y="0">2209</tspan></text>
            <text class="cls-2" transform="translate(292.25 965.55)"><tspan x="0" y="0">2211</tspan></text>
            <text class="cls-2" transform="translate(1268.57 836.79)"><tspan x="0" y="0">2301</tspan></text>
            <text class="cls-2" transform="translate(1081.03 832.25)"><tspan x="0" y="0">2303</tspan></text>
            <text class="cls-1" transform="translate(959.92 837.1)"><tspan x="0" y="0">2305</tspan></text>
            <text class="cls-2" transform="translate(777.36 847.14)"><tspan x="0" y="0">2307</tspan></text>
            <text class="cls-2" transform="translate(516.23 858.13)"><tspan x="0" y="0">2309</tspan></text>
            <text class="cls-2" transform="translate(292.25 872.44)"><tspan x="0" y="0">2311</tspan></text>
            <text class="cls-2" transform="translate(1268.57 738.37)"><tspan x="0" y="0">2401</tspan></text>
            <text class="cls-2" transform="translate(1081.03 738.44)"><tspan x="0" y="0">2403</tspan></text>
            <text class="cls-1" transform="translate(959.92 743.09)"><tspan x="0" y="0">2405</tspan></text>
            <text class="cls-2" transform="translate(777.36 754.22)"><tspan x="0" y="0">2407</tspan></text>
            <text class="cls-2" transform="translate(516.23 764.32)"><tspan x="0" y="0">2409</tspan></text>
            <text class="cls-2" transform="translate(292.25 779.33)"><tspan x="0" y="0">2411</tspan></text>
            <text class="cls-2" transform="translate(1268.57 636.58)"><tspan x="0" y="0">2501</tspan></text>
            <text class="cls-2" transform="translate(1081.03 644.63)"><tspan x="0" y="0">2503</tspan></text>
            <text class="cls-1" transform="translate(959.92 649.07)"><tspan x="0" y="0">2505</tspan></text>
            <text class="cls-2" transform="translate(777.36 661.29)"><tspan x="0" y="0">2507</tspan></text>
            <text class="cls-2" transform="translate(516.23 670.51)"><tspan x="0" y="0">2509</tspan></text>
            <text class="cls-2" transform="translate(292.25 686.22)"><tspan x="0" y="0">2511</tspan></text>
            <text class="cls-2" transform="translate(1268.57 543.27)"><tspan x="0" y="0">2601</tspan></text>
            <text class="cls-2" transform="translate(1081.03 550.83)"><tspan x="0" y="0">2603</tspan></text>
            <text class="cls-1" transform="translate(959.92 555.06)"><tspan x="0" y="0">2605</tspan></text>
            <text class="cls-2" transform="translate(777.36 568.37)"><tspan x="0" y="0">2607</tspan></text>
            <text class="cls-2" transform="translate(516.23 576.7)"><tspan x="0" y="0">2609</tspan></text>
            <text class="cls-2" transform="translate(292.25 593.11)"><tspan x="0" y="0">2611</tspan></text>
            <text class="cls-2" transform="translate(1268.57 445.07)"><tspan x="0" y="0">2701</tspan></text>
            <text class="cls-2" transform="translate(1081.03 457.02)"><tspan x="0" y="0">2703</tspan></text>
            <text class="cls-1" transform="translate(959.92 461.04)"><tspan x="0" y="0">2705</tspan></text>
            <text class="cls-2" transform="translate(777.36 475.45)"><tspan x="0" y="0">2707</tspan></text>
            <text class="cls-2" transform="translate(516.23 482.89)"><tspan x="0" y="0">2709</tspan></text>
            <text class="cls-2" transform="translate(292.25 500)"><tspan x="0" y="0">2711</tspan></text>
            <text class="cls-2" transform="translate(1268.57 355.63)"><tspan x="0" y="0">2801</tspan></text>
            <text class="cls-2" transform="translate(1081.03 363.21)"><tspan x="0" y="0">2803</tspan></text>
            <text class="cls-1" transform="translate(959.92 367.03)"><tspan x="0" y="0">2805</tspan></text>
            <text class="cls-2" transform="translate(777.36 382.53)"><tspan x="0" y="0">2807</tspan></text>
            <text class="cls-2" transform="translate(516.23 389.08)"><tspan x="0" y="0">2809</tspan></text>
            <text class="cls-2" transform="translate(292.25 406.88)"><tspan x="0" y="0">2811</tspan></text>
          </g>
        </g>
      </g>
    </g>
  </g>
</svg>