<?xml version="1.0" encoding="UTF-8"?>
<svg xmlns="http://www.w3.org/2000/svg" viewBox="0 0 1601 1601">
  <defs>
    <style>
      .cls-1 {
        fill: #fff;
        font-family: MyriadPro-Regular, 'Myriad Pro';
        font-size: 39.15px;
      }

      .cls-2, .cls-3 {
        fill: none;
        stroke: #fff;
        stroke-miterlimit: 10;
      }

      .cls-4 {
        fill: #00923d;
        mix-blend-mode: multiply;
      }

      .cls-3 {
        stroke-width: 5px;
      }

      .cls-5 {
        isolation: isolate;
      }
    </style>
  </defs>
  <g class="cls-5">
    <g id="Capa_2" data-name="Capa 2">
      <g id="VB_-_Front" data-name="VB - Front">
        <g>
          <rect class="cls-2" x=".5" y=".5" width="1600" height="1600"/>
          <g>
            <g>
              <polygon class="cls-4" points="419.29 535.86 229.54 544.64 229.54 633.42 419.29 624.76 419.29 535.86"/>
              <polygon class="cls-3" points="419.29 535.86 229.54 544.64 229.54 633.42 419.29 624.76 419.29 535.86"/>
            </g>
            <g>
              <polygon class="cls-4" points="419.29 624.76 229.54 633.42 229.54 724.63 419.29 716.84 419.29 624.76"/>
              <polygon class="cls-3" points="419.29 624.76 229.54 633.42 229.54 724.63 419.29 716.84 419.29 624.76"/>
            </g>
            <g>
              <polygon class="cls-4" points="419.29 716.84 229.54 724.63 229.54 813.38 419.29 806.85 419.29 716.84"/>
              <polygon class="cls-3" points="419.29 716.84 229.54 724.63 229.54 813.38 419.29 806.85 419.29 716.84"/>
            </g>
            <g>
              <polygon class="cls-4" points="419.29 358.75 229.54 367.91 229.54 456.49 419.29 447.83 419.29 358.75"/>
              <polygon class="cls-3" points="419.29 358.75 229.54 367.91 229.54 456.49 419.29 447.83 419.29 358.75"/>
            </g>
            <g>
              <polygon class="cls-4" points="419.29 447.83 229.54 456.49 229.54 544.64 419.29 535.86 419.29 447.83"/>
              <polygon class="cls-3" points="419.29 447.83 229.54 456.49 229.54 544.64 419.29 535.86 419.29 447.83"/>
            </g>
            <g>
              <polygon class="cls-4" points="419.29 806.85 229.54 813.38 229.54 903.16 419.29 899.02 419.29 806.85"/>
              <polygon class="cls-3" points="419.29 806.85 229.54 813.38 229.54 903.16 419.29 899.02 419.29 806.85"/>
            </g>
            <g>
              <polygon class="cls-4" points="419.29 1080.21 229.54 1084.1 229.54 1173.6 419.29 1170.59 419.29 1080.21"/>
              <polygon class="cls-3" points="419.29 1080.21 229.54 1084.1 229.54 1173.6 419.29 1170.59 419.29 1080.21"/>
            </g>
            <g>
              <polygon class="cls-4" points="419.29 1170.59 229.54 1173.6 229.54 1262.13 419.29 1259.38 419.29 1170.59"/>
              <polygon class="cls-3" points="419.29 1170.59 229.54 1173.6 229.54 1262.13 419.29 1259.38 419.29 1170.59"/>
            </g>
            <g>
              <polygon class="cls-4" points="419.29 899.02 229.54 903.16 229.54 994.56 419.29 990.92 419.29 899.02"/>
              <polygon class="cls-3" points="419.29 899.02 229.54 903.16 229.54 994.56 419.29 990.92 419.29 899.02"/>
            </g>
            <g>
              <polygon class="cls-4" points="419.29 990.92 229.54 994.56 229.54 1084.1 419.29 1080.21 419.29 990.92"/>
              <polygon class="cls-3" points="419.29 990.92 229.54 994.56 229.54 1084.1 419.29 1080.21 419.29 990.92"/>
            </g>
            <g>
              <polygon class="cls-4" points="684.48 1074.78 419.29 1080.21 419.29 1170.59 684.48 1166.38 684.48 1074.78"/>
              <polygon class="cls-3" points="684.48 1074.78 419.29 1080.21 419.29 1170.59 684.48 1166.38 684.48 1074.78"/>
            </g>
            <g>
              <polygon class="cls-4" points="684.48 1166.38 419.29 1170.59 419.29 1259.38 684.48 1255.52 684.48 1166.38"/>
              <polygon class="cls-3" points="684.48 1166.38 419.29 1170.59 419.29 1259.38 684.48 1255.52 684.48 1166.38"/>
            </g>
            <g>
              <polygon class="cls-4" points="684.48 985.84 419.29 990.92 419.29 1080.21 684.48 1074.78 684.48 985.84"/>
              <polygon class="cls-3" points="684.48 985.84 419.29 990.92 419.29 1080.21 684.48 1074.78 684.48 985.84"/>
            </g>
            <g>
              <polygon class="cls-4" points="684.48 435.73 419.29 447.83 419.29 535.86 684.48 523.58 684.48 435.73"/>
              <polygon class="cls-3" points="684.48 435.73 419.29 447.83 419.29 535.86 684.48 523.58 684.48 435.73"/>
            </g>
            <g>
              <polygon class="cls-4" points="684.48 893.24 419.29 899.02 419.29 990.92 684.48 985.84 684.48 893.24"/>
              <polygon class="cls-3" points="684.48 893.24 419.29 899.02 419.29 990.92 684.48 985.84 684.48 893.24"/>
            </g>
            <g>
              <polygon class="cls-4" points="684.48 345.94 419.29 358.75 419.29 447.83 684.48 435.73 684.48 345.94"/>
              <polygon class="cls-3" points="684.48 345.94 419.29 358.75 419.29 447.83 684.48 435.73 684.48 345.94"/>
            </g>
            <g>
              <polygon class="cls-4" points="684.48 797.73 419.29 806.85 419.29 899.02 684.48 893.24 684.48 797.73"/>
              <polygon class="cls-3" points="684.48 797.73 419.29 806.85 419.29 899.02 684.48 893.24 684.48 797.73"/>
            </g>
            <g>
              <polygon class="cls-4" points="684.48 705.97 419.29 716.84 419.29 806.85 684.48 797.73 684.48 705.97"/>
              <polygon class="cls-3" points="684.48 705.97 419.29 716.84 419.29 806.85 684.48 797.73 684.48 705.97"/>
            </g>
            <g>
              <polygon class="cls-4" points="684.48 523.58 419.29 535.86 419.29 624.76 684.48 612.66 684.48 523.58"/>
              <polygon class="cls-3" points="684.48 523.58 419.29 535.86 419.29 624.76 684.48 612.66 684.48 523.58"/>
            </g>
            <g>
              <polygon class="cls-4" points="684.48 612.66 419.29 624.76 419.29 716.84 684.48 705.97 684.48 612.66"/>
              <polygon class="cls-3" points="684.48 612.66 419.29 624.76 419.29 716.84 684.48 705.97 684.48 612.66"/>
            </g>
            <g>
              <polygon class="cls-4" points="949.67 333.14 684.48 345.94 684.48 435.73 949.67 423.63 949.67 333.14"/>
              <polygon class="cls-3" points="949.67 333.14 684.48 345.94 684.48 435.73 949.67 423.63 949.67 333.14"/>
            </g>
            <g>
              <polygon class="cls-4" points="949.67 423.63 684.48 435.73 684.48 523.58 949.67 511.31 949.67 423.63"/>
              <polygon class="cls-3" points="949.67 423.63 684.48 435.73 684.48 523.58 949.67 511.31 949.67 423.63"/>
            </g>
            <g>
              <polygon class="cls-4" points="949.67 600.56 684.48 612.66 684.48 705.97 949.67 695.09 949.67 600.56"/>
              <polygon class="cls-3" points="949.67 600.56 684.48 612.66 684.48 705.97 949.67 695.09 949.67 600.56"/>
            </g>
            <g>
              <polygon class="cls-4" points="949.67 511.31 684.48 523.58 684.48 612.66 949.67 600.56 949.67 511.31"/>
              <polygon class="cls-3" points="949.67 511.31 684.48 523.58 684.48 612.66 949.67 600.56 949.67 511.31"/>
            </g>
            <g>
              <polygon class="cls-4" points="949.67 695.09 684.48 705.97 684.48 797.73 949.67 788.61 949.67 695.09"/>
              <polygon class="cls-3" points="949.67 695.09 684.48 705.97 684.48 797.73 949.67 788.61 949.67 695.09"/>
            </g>
            <g>
              <polygon class="cls-4" points="949.67 788.61 684.48 797.73 684.48 893.24 949.67 887.46 949.67 788.61"/>
              <polygon class="cls-3" points="949.67 788.61 684.48 797.73 684.48 893.24 949.67 887.46 949.67 788.61"/>
            </g>
            <g>
              <polygon class="cls-4" points="949.67 887.46 684.48 893.24 684.48 985.84 949.67 980.76 949.67 887.46"/>
              <polygon class="cls-3" points="949.67 887.46 684.48 893.24 684.48 985.84 949.67 980.76 949.67 887.46"/>
            </g>
            <g>
              <polygon class="cls-4" points="949.67 1069.35 684.48 1074.78 684.48 1166.38 949.67 1162.18 949.67 1069.35"/>
              <polygon class="cls-3" points="949.67 1069.35 684.48 1074.78 684.48 1166.38 949.67 1162.18 949.67 1069.35"/>
            </g>
            <g>
              <polygon class="cls-4" points="949.67 980.76 684.48 985.84 684.48 1074.78 949.67 1069.35 949.67 980.76"/>
              <polygon class="cls-3" points="949.67 980.76 684.48 985.84 684.48 1074.78 949.67 1069.35 949.67 980.76"/>
            </g>
            <g>
              <polygon class="cls-4" points="949.67 1162.18 684.48 1166.38 684.48 1255.52 949.67 1251.67 949.67 1162.18"/>
              <polygon class="cls-3" points="949.67 1162.18 684.48 1166.38 684.48 1255.52 949.67 1251.67 949.67 1162.18"/>
            </g>
            <g>
              <polygon class="cls-4" points="949.67 423.63 1030.25 419.96 1030.25 329.25 949.67 333.14 949.67 423.63"/>
              <polygon class="cls-3" points="949.67 423.63 1030.25 419.96 1030.25 329.25 949.67 333.14 949.67 423.63"/>
            </g>
            <g>
              <polygon class="cls-4" points="949.67 511.31 1030.25 507.57 1030.25 419.96 949.67 423.63 949.67 511.31"/>
              <polygon class="cls-3" points="949.67 511.31 1030.25 507.57 1030.25 419.96 949.67 423.63 949.67 511.31"/>
            </g>
            <g>
              <polygon class="cls-4" points="949.67 600.56 1030.25 596.88 1030.25 507.57 949.67 511.31 949.67 600.56"/>
              <polygon class="cls-3" points="949.67 600.56 1030.25 596.88 1030.25 507.57 949.67 511.31 949.67 600.56"/>
            </g>
            <g>
              <polygon class="cls-4" points="949.67 1162.18 1030.25 1160.9 1030.25 1067.7 949.67 1069.35 949.67 1162.18"/>
              <polygon class="cls-3" points="949.67 1162.18 1030.25 1160.9 1030.25 1067.7 949.67 1069.35 949.67 1162.18"/>
            </g>
            <g>
              <polygon class="cls-4" points="949.67 980.76 1030.25 979.22 1030.25 885.7 949.67 887.46 949.67 980.76"/>
              <polygon class="cls-3" points="949.67 980.76 1030.25 979.22 1030.25 885.7 949.67 887.46 949.67 980.76"/>
            </g>
            <g>
              <polygon class="cls-4" points="949.67 887.46 1030.25 885.7 1030.25 785.83 949.67 788.61 949.67 887.46"/>
              <polygon class="cls-3" points="949.67 887.46 1030.25 885.7 1030.25 785.83 949.67 788.61 949.67 887.46"/>
            </g>
            <g>
              <polygon class="cls-4" points="949.67 788.61 1030.25 785.83 1030.25 691.79 949.67 695.09 949.67 788.61"/>
              <polygon class="cls-3" points="949.67 788.61 1030.25 785.83 1030.25 691.79 949.67 695.09 949.67 788.61"/>
            </g>
            <g>
              <polygon class="cls-4" points="949.67 695.09 1030.25 691.79 1030.25 596.88 949.67 600.56 949.67 695.09"/>
              <polygon class="cls-3" points="949.67 695.09 1030.25 691.79 1030.25 596.88 949.67 600.56 949.67 695.09"/>
            </g>
            <g>
              <polygon class="cls-4" points="949.67 1251.67 1030.25 1250.5 1030.25 1160.9 949.67 1162.18 949.67 1251.67"/>
              <polygon class="cls-3" points="949.67 1251.67 1030.25 1250.5 1030.25 1160.9 949.67 1162.18 949.67 1251.67"/>
            </g>
            <g>
              <polygon class="cls-4" points="949.67 1069.35 1030.25 1067.7 1030.25 979.22 949.67 980.76 949.67 1069.35"/>
              <polygon class="cls-3" points="949.67 1069.35 1030.25 1067.7 1030.25 979.22 949.67 980.76 949.67 1069.35"/>
            </g>
            <g>
              <polygon class="cls-4" points="1030.25 1160.9 1220.71 1157.88 1220.71 1063.8 1030.25 1067.7 1030.25 1160.9"/>
              <polygon class="cls-3" points="1030.25 1160.9 1220.71 1157.88 1220.71 1063.8 1030.25 1067.7 1030.25 1160.9"/>
            </g>
            <g>
              <polygon class="cls-4" points="1030.25 1250.5 1220.71 1247.73 1220.71 1157.88 1030.25 1160.9 1030.25 1250.5"/>
              <polygon class="cls-3" points="1030.25 1250.5 1220.71 1247.73 1220.71 1157.88 1030.25 1160.9 1030.25 1250.5"/>
            </g>
            <g>
              <polygon class="cls-4" points="1030.25 885.7 1220.71 881.55 1220.71 779.28 1030.25 785.83 1030.25 885.7"/>
              <polygon class="cls-3" points="1030.25 885.7 1220.71 881.55 1220.71 779.28 1030.25 785.83 1030.25 885.7"/>
            </g>
            <g>
              <polygon class="cls-4" points="1030.25 785.83 1220.71 779.28 1220.71 683.98 1030.25 691.79 1030.25 785.83"/>
              <polygon class="cls-3" points="1030.25 785.83 1220.71 779.28 1220.71 683.98 1030.25 691.79 1030.25 785.83"/>
            </g>
            <g>
              <polygon class="cls-4" points="1030.25 1067.7 1220.71 1063.8 1220.71 975.57 1030.25 979.22 1030.25 1067.7"/>
              <polygon class="cls-3" points="1030.25 1067.7 1220.71 1063.8 1220.71 975.57 1030.25 979.22 1030.25 1067.7"/>
            </g>
            <g>
              <polygon class="cls-4" points="1030.25 979.22 1220.71 975.57 1220.71 881.55 1030.25 885.7 1030.25 979.22"/>
              <polygon class="cls-3" points="1030.25 979.22 1220.71 975.57 1220.71 881.55 1030.25 885.7 1030.25 979.22"/>
            </g>
            <g>
              <polygon class="cls-4" points="1030.25 691.79 1220.71 683.98 1220.71 588.19 1030.25 596.88 1030.25 691.79"/>
              <polygon class="cls-3" points="1030.25 691.79 1220.71 683.98 1220.71 588.19 1030.25 596.88 1030.25 691.79"/>
            </g>
            <g>
              <polygon class="cls-4" points="1030.25 596.88 1220.71 588.19 1220.71 498.76 1030.25 507.57 1030.25 596.88"/>
              <polygon class="cls-3" points="1030.25 596.88 1220.71 588.19 1220.71 498.76 1030.25 507.57 1030.25 596.88"/>
            </g>
            <g>
              <polygon class="cls-4" points="1030.25 419.96 1220.71 411.26 1220.71 320.06 1030.25 329.25 1030.25 419.96"/>
              <polygon class="cls-3" points="1030.25 419.96 1220.71 411.26 1220.71 320.06 1030.25 329.25 1030.25 419.96"/>
            </g>
            <g>
              <polygon class="cls-4" points="1030.25 507.57 1220.71 498.76 1220.71 411.26 1030.25 419.96 1030.25 507.57"/>
              <polygon class="cls-3" points="1030.25 507.57 1220.71 498.76 1220.71 411.26 1030.25 419.96 1030.25 507.57"/>
            </g>
            <g>
              <polygon class="cls-4" points="1220.71 683.98 1411.17 676.17 1411.17 579.5 1220.71 588.19 1220.71 683.98"/>
              <polygon class="cls-3" points="1220.71 683.98 1411.17 676.17 1411.17 579.5 1220.71 588.19 1220.71 683.98"/>
            </g>
            <g>
              <polygon class="cls-4" points="1220.71 881.55 1411.17 877.4 1411.17 772.73 1220.71 779.28 1220.71 881.55"/>
              <polygon class="cls-3" points="1220.71 881.55 1411.17 877.4 1411.17 772.73 1220.71 779.28 1220.71 881.55"/>
            </g>
            <g>
              <polygon class="cls-4" points="1220.71 498.76 1411.17 489.94 1411.17 402.57 1220.71 411.26 1220.71 498.76"/>
              <polygon class="cls-3" points="1220.71 498.76 1411.17 489.94 1411.17 402.57 1220.71 411.26 1220.71 498.76"/>
            </g>
            <g>
              <polygon class="cls-4" points="1220.71 779.28 1411.17 772.73 1411.17 676.17 1220.71 683.98 1220.71 779.28"/>
              <polygon class="cls-3" points="1220.71 779.28 1411.17 772.73 1411.17 676.17 1220.71 683.98 1220.71 779.28"/>
            </g>
            <g>
              <polygon class="cls-4" points="1220.71 975.57 1411.17 971.92 1411.17 877.4 1220.71 881.55 1220.71 975.57"/>
              <polygon class="cls-3" points="1220.71 975.57 1411.17 971.92 1411.17 877.4 1220.71 881.55 1220.71 975.57"/>
            </g>
            <g>
              <polygon class="cls-4" points="1220.71 411.26 1411.17 402.57 1411.17 310.87 1220.71 320.06 1220.71 411.26"/>
              <polygon class="cls-3" points="1220.71 411.26 1411.17 402.57 1411.17 310.87 1220.71 320.06 1220.71 411.26"/>
            </g>
            <g>
              <polygon class="cls-4" points="1220.71 588.19 1411.17 579.5 1411.17 489.94 1220.71 498.76 1220.71 588.19"/>
              <polygon class="cls-3" points="1220.71 588.19 1411.17 579.5 1411.17 489.94 1220.71 498.76 1220.71 588.19"/>
            </g>
            <g>
              <polygon class="cls-4" points="1220.71 1063.8 1411.17 1059.9 1411.17 971.92 1220.71 975.57 1220.71 1063.8"/>
              <polygon class="cls-3" points="1220.71 1063.8 1411.17 1059.9 1411.17 971.92 1220.71 975.57 1220.71 1063.8"/>
            </g>
            <g>
              <polygon class="cls-4" points="1220.71 1157.88 1411.17 1154.87 1411.17 1059.9 1220.71 1063.8 1220.71 1157.88"/>
              <polygon class="cls-3" points="1220.71 1157.88 1411.17 1154.87 1411.17 1059.9 1220.71 1063.8 1220.71 1157.88"/>
            </g>
            <g>
              <polygon class="cls-4" points="1220.71 1247.73 1411.17 1244.96 1411.17 1154.87 1220.71 1157.88 1220.71 1247.73"/>
              <polygon class="cls-3" points="1220.71 1247.73 1411.17 1244.96 1411.17 1154.87 1220.71 1157.88 1220.71 1247.73"/>
            </g>
          </g>
          <g>
            <text class="cls-1" transform="translate(1268.57 1126.9)"><tspan x="0" y="0">1101</tspan></text>
            <text class="cls-1" transform="translate(1081.03 1127.33)"><tspan x="0" y="0">1103</tspan></text>
            <text class="cls-1" transform="translate(777.36 1135.63)"><tspan x="0" y="0">1107</tspan></text>
            <text class="cls-1" transform="translate(516.23 1141.39)"><tspan x="0" y="0">1109</tspan></text>
            <text class="cls-1" transform="translate(292.25 1147.16)"><tspan x="0" y="0">1111</tspan></text>
            <text class="cls-1" transform="translate(1268.57 1034.51)"><tspan x="0" y="0">1201</tspan></text>
            <text class="cls-1" transform="translate(1081.03 1034.94)"><tspan x="0" y="0">1203</tspan></text>
            <text class="cls-1" transform="translate(947.59 1036.24)"><tspan x="0" y="0">1205</tspan></text>
            <text class="cls-1" transform="translate(947.59 1127.76)"><tspan x="0" y="0">1105</tspan></text>
            <text class="cls-1" transform="translate(1268.57 1212.88)"><tspan x="0" y="0">1001</tspan></text>
            <text class="cls-1" transform="translate(1081.03 1213.31)"><tspan x="0" y="0">1003</tspan></text>
            <text class="cls-1" transform="translate(777.36 1221.61)"><tspan x="0" y="0">1007</tspan></text>
            <text class="cls-1" transform="translate(516.23 1227.37)"><tspan x="0" y="0">1009</tspan></text>
            <text class="cls-1" transform="translate(292.25 1233.14)"><tspan x="0" y="0">1011</tspan></text>
            <text class="cls-1" transform="translate(948.59 1214.74)"><tspan x="0" y="0">1005</tspan></text>
            <text class="cls-1" transform="translate(777.36 1043.76)"><tspan x="0" y="0">1207</tspan></text>
            <text class="cls-1" transform="translate(516.23 1049.63)"><tspan x="0" y="0">1209</tspan></text>
            <text class="cls-1" transform="translate(292.25 1056.69)"><tspan x="0" y="0">1211</tspan></text>
            <text class="cls-1" transform="translate(1268.57 946.79)"><tspan x="0" y="0">1301</tspan></text>
            <text class="cls-1" transform="translate(1081.03 947.22)"><tspan x="0" y="0">1303</tspan></text>
            <text class="cls-1" transform="translate(948.59 945.98)"><tspan x="0" y="0">1305</tspan></text>
            <text class="cls-1" transform="translate(777.36 951.89)"><tspan x="0" y="0">1307</tspan></text>
            <text class="cls-1" transform="translate(516.23 957.88)"><tspan x="0" y="0">1309</tspan></text>
            <text class="cls-1" transform="translate(292.25 966.23)"><tspan x="0" y="0">1311</tspan></text>
            <text class="cls-1" transform="translate(1268.57 848.37)"><tspan x="0" y="0">1401</tspan></text>
            <text class="cls-1" transform="translate(1081.03 855)"><tspan x="0" y="0">1403</tspan></text>
            <text class="cls-1" transform="translate(948.59 855.33)"><tspan x="0" y="0">1405</tspan></text>
            <text class="cls-1" transform="translate(777.36 860.02)"><tspan x="0" y="0">1407</tspan></text>
            <text class="cls-1" transform="translate(516.23 866.12)"><tspan x="0" y="0">1409</tspan></text>
            <text class="cls-1" transform="translate(292.25 875.76)"><tspan x="0" y="0">1411</tspan></text>
            <text class="cls-1" transform="translate(1268.57 746.58)"><tspan x="0" y="0">1501</tspan></text>
            <text class="cls-1" transform="translate(1081.03 756.41)"><tspan x="0" y="0">1503</tspan></text>
            <text class="cls-1" transform="translate(948.59 757.87)"><tspan x="0" y="0">1505</tspan></text>
            <text class="cls-1" transform="translate(777.36 768.15)"><tspan x="0" y="0">1507</tspan></text>
            <text class="cls-1" transform="translate(516.23 774.36)"><tspan x="0" y="0">1509</tspan></text>
            <text class="cls-1" transform="translate(292.25 785.29)"><tspan x="0" y="0">1511</tspan></text>
            <text class="cls-1" transform="translate(1268.57 653.27)"><tspan x="0" y="0">1601</tspan></text>
            <text class="cls-1" transform="translate(1081.03 662.29)"><tspan x="0" y="0">1603</tspan></text>
            <text class="cls-1" transform="translate(948.59 663.42)"><tspan x="0" y="0">1605</tspan></text>
            <text class="cls-1" transform="translate(777.36 676.28)"><tspan x="0" y="0">1607</tspan></text>
            <text class="cls-1" transform="translate(516.23 682.6)"><tspan x="0" y="0">1609</tspan></text>
            <text class="cls-1" transform="translate(292.25 694.82)"><tspan x="0" y="0">1611</tspan></text>
            <text class="cls-1" transform="translate(1268.57 554.07)"><tspan x="0" y="0">1701</tspan></text>
            <text class="cls-1" transform="translate(1081.03 568.49)"><tspan x="0" y="0">1703</tspan></text>
            <text class="cls-1" transform="translate(948.59 568.92)"><tspan x="0" y="0">1705</tspan></text>
            <text class="cls-1" transform="translate(777.36 584.4)"><tspan x="0" y="0">1707</tspan></text>
            <text class="cls-1" transform="translate(516.23 590.84)"><tspan x="0" y="0">1709</tspan></text>
            <text class="cls-1" transform="translate(292.25 604.35)"><tspan x="0" y="0">1711</tspan></text>
            <text class="cls-1" transform="translate(1268.57 465.63)"><tspan x="0" y="0">1801</tspan></text>
            <text class="cls-1" transform="translate(1081.03 473.61)"><tspan x="0" y="0">1803</tspan></text>
            <text class="cls-1" transform="translate(948.59 477.03)"><tspan x="0" y="0">1805</tspan></text>
            <text class="cls-1" transform="translate(777.36 492.53)"><tspan x="0" y="0">1807</tspan></text>
            <text class="cls-1" transform="translate(516.23 499.08)"><tspan x="0" y="0">1809</tspan></text>
            <text class="cls-1" transform="translate(292.25 513.88)"><tspan x="0" y="0">1811</tspan></text>
            <text class="cls-1" transform="translate(1268.57 376.44)"><tspan x="0" y="0">1901</tspan></text>
            <text class="cls-1" transform="translate(1081.03 389.45)"><tspan x="0" y="0">1903</tspan></text>
            <text class="cls-1" transform="translate(948.59 389.57)"><tspan x="0" y="0">1905</tspan></text>
            <text class="cls-1" transform="translate(777.36 400.66)"><tspan x="0" y="0">1907</tspan></text>
            <text class="cls-1" transform="translate(516.23 407.32)"><tspan x="0" y="0">1909</tspan></text>
            <text class="cls-1" transform="translate(292.25 423.42)"><tspan x="0" y="0">1911</tspan></text>
          </g>
        </g>
      </g>
    </g>
  </g>
</svg>