<?xml version="1.0" encoding="UTF-8"?>
<svg xmlns="http://www.w3.org/2000/svg" viewBox="0 0 1081 1921">
  <defs>
    <style>
      .cls-1 {
        letter-spacing: 0em;
      }

      .cls-2, .cls-3 {
        fill: none;
        stroke: #fff;
        stroke-miterlimit: 10;
      }

      .cls-4 {
        isolation: isolate;
      }

      .cls-3 {
        stroke-width: 5px;
      }

      .cls-5 {
        letter-spacing: 0em;
      }

      .cls-6 {
        fill: #009245;
        mix-blend-mode: multiply;
        stroke-width: 0px;
      }

      .cls-7 {
        fill: #fff;
        font-family: MyriadPro-Regular, 'Myriad Pro';
        font-size: 35px;
      }

      .cls-8 {
        letter-spacing: 0em;
      }
    </style>
  </defs>
  <g class="cls-4">
    <g id="Capa_2" data-name="Capa 2">
      <g id="_1" data-name="1">
        <g>
          <g>
            <polygon class="cls-6" points="326.41 1057.34 686.43 1030.77 686.43 1382.98 335.78 1434.56 326.41 1057.34"/>
            <polygon class="cls-3" points="326.41 1057.34 686.43 1030.77 686.43 1382.98 335.78 1434.56 326.41 1057.34"/>
          </g>
          <g>
            <polygon class="cls-6" points="686.43 1030.77 686.43 635.7 312.46 614.87 326.41 1057.34 686.43 1030.77"/>
            <polygon class="cls-3" points="686.43 1030.77 686.43 635.7 312.46 614.87 326.41 1057.34 686.43 1030.77"/>
          </g>
          <g>
            <polygon class="cls-6" points="686.43 635.7 686.43 231.7 312.46 155.18 312.46 614.87 686.43 635.7"/>
            <polygon class="cls-3" points="686.43 635.7 686.43 231.7 312.46 155.18 312.46 614.87 686.43 635.7"/>
          </g>
          <text class="cls-7" transform="translate(437.24 1232.46)"><tspan class="cls-5" x="0" y="0">S</tspan><tspan class="cls-1" x="17.46" y="0">e</tspan><tspan class="cls-8" x="35" y="0">c</tspan><tspan x="50.47" y="0">ción 1</tspan></text>
          <text class="cls-7" transform="translate(437.24 862.23)"><tspan class="cls-5" x="0" y="0">S</tspan><tspan class="cls-1" x="17.46" y="0">e</tspan><tspan class="cls-8" x="35" y="0">c</tspan><tspan x="50.47" y="0">ción 2</tspan></text>
          <text class="cls-7" transform="translate(437.24 416.91)"><tspan class="cls-5" x="0" y="0">S</tspan><tspan class="cls-1" x="17.46" y="0">e</tspan><tspan class="cls-8" x="35" y="0">c</tspan><tspan x="50.47" y="0">ción 3</tspan></text>
          <rect class="cls-2" x=".5" y=".5" width="1080" height="1920"/>
        </g>
      </g>
    </g>
  </g>
</svg>