<?xml version="1.0" encoding="UTF-8"?>
<svg id="Capa_2" data-name="Capa 2" xmlns="http://www.w3.org/2000/svg" viewBox="0 0 1601 1601">
  <defs>
    <style>
      .cls-1 {
        fill: none;
        stroke: #fff;
        stroke-miterlimit: 10;
      }

      .cls-2 {
        font-size: 26.51px;
      }

      .cls-2, .cls-3 {
        font-family: MyriadPro-Regular, 'Myriad Pro';
      }

      .cls-3 {
        font-size: 27.1px;
      }

      .cls-4 {
        fill: #fff;
        stroke-width: 0px;
      }
    </style>
  </defs>
  <g id="_1" data-name="1">
    <g>
      <g>
        <polygon class="cls-4" points="1269.62 384.04 1165.21 379.13 1155.14 380.85 1088.92 377.1 1088.97 375.02 1088.56 297.51 1269.4 308.2 1269.62 384.04"/>
        <polygon class="cls-4" points="1269.89 484.58 1088.99 479.93 1088.5 400.68 1088.52 399.35 1269.69 407.48 1269.89 484.58"/>
        <polygon class="cls-4" points="1270.19 584.07 1089.62 580.43 1089.13 501.93 1269.96 508.52 1270.19 584.07"/>
        <polygon class="cls-4" points="1268.56 681.7 1088.33 678.9 1087.84 601.61 1268.33 605.23 1268.56 681.7"/>
        <polygon class="cls-4" points="1245.18 780.55 1088.97 780.84 1088.47 702.79 1244.46 703.69 1245.18 780.55"/>
        <polygon class="cls-4" points="1268.27 878.9 1091.14 880.96 1090.89 805.19 1090.73 803.36 1267.79 801.39 1268.27 878.9"/>
        <polygon class="cls-4" points="1268.87 975.41 1091.47 982.05 1091.23 904.9 1268.4 900.56 1268.87 975.41"/>
        <polygon class="cls-4" points="1269.48 1073.22 1091.79 1082.01 1091.54 1002.92 1269.01 996.48 1269.48 1073.22"/>
        <polygon class="cls-4" points="1092.13 1182.94 1092.13 1181.9 1091.86 1102.22 1269.6 1092.64 1270.09 1173.97 1092.13 1182.94"/>
        <polygon class="cls-4" points="617.59 353.59 534.45 349.48 529.69 348.89 371.75 342.52 370.06 255.03 616.23 269.58 617.59 353.59"/>
        <polygon class="cls-4" points="619.39 463.78 541.45 461.82 529.78 459.33 384.67 454.52 373.92 454.52 372.23 367.21 617.99 378.23 619.39 463.78"/>
        <polygon class="cls-4" points="624.65 786.4 543.76 786.54 536.94 788.93 380.36 788.98 378.66 700.58 623.28 702 624.65 786.4"/>
        <polygon class="cls-4" points="622.92 680.14 540.46 679.67 529.78 680.91 378.24 678.92 376.52 589.33 621.52 594.21 622.92 680.14"/>
        <polygon class="cls-4" points="621.15 571.49 540.46 569.45 529.78 570.7 384.67 565.89 376.07 565.89 374.33 475.84 619.73 484.78 621.15 571.49"/>
        <polygon class="cls-4" points="626.42 894.44 543.76 895.42 536.94 897.83 382.53 900.9 380.83 813.14 625.04 810.43 626.42 894.44"/>
        <polygon class="cls-4" points="628.18 1001.95 552.25 1004.07 545.81 1006.78 384.63 1009.99 382.98 924.21 626.8 918.25 628.18 1001.95"/>
        <polygon class="cls-4" points="629.89 1107.82 553.92 1111.21 550.04 1111.82 386.73 1118.84 385.03 1030.49 628.49 1021.66 629.89 1107.82"/>
        <polygon class="cls-4" points="631.63 1214.15 553.78 1218.8 550.04 1221.63 388.85 1228.58 387.18 1142.17 630.26 1129.1 631.63 1214.15"/>
        <polygon class="cls-4" points="856.24 365.76 744.28 360.01 737.55 359.51 642.74 354.83 641.37 271.07 855.38 283.72 856.24 365.76"/>
        <polygon class="cls-4" points="857.37 472.84 750.68 469.4 744.53 466.92 644.53 464.41 643.15 379.36 856.48 388.94 857.37 472.84"/>
        <polygon class="cls-4" points="858.47 577.58 750.68 575.03 744.62 574.6 646.29 572.12 644.87 485.71 857.59 493.46 858.47 577.58"/>
        <polygon class="cls-4" points="859.56 681.9 749.77 681.79 743.99 680.82 648.05 680.28 646.65 594.73 858.7 598.95 859.56 681.9"/>
        <polygon class="cls-4" points="860.66 785.59 748.46 785.41 744.22 786.2 649.79 786.36 648.41 702.14 859.8 703.38 860.66 785.59"/>
        <polygon class="cls-4" points="861.75 889.63 750.68 891.22 744.04 893.09 651.53 894.17 650.18 810.16 860.89 807.83 861.75 889.63"/>
        <polygon class="cls-4" points="862.85 993.12 757.04 995.22 747.92 998.58 653.29 1001.25 651.91 917.64 862 912.49 862.85 993.12"/>
        <polygon class="cls-4" points="863.94 1096.49 757.04 1101.43 749.84 1102.47 655.01 1106.69 653.61 1020.76 863.06 1013.17 863.94 1096.49"/>
        <polygon class="cls-4" points="865.02 1200.31 760.95 1205.73 751.38 1207.01 656.72 1212.66 655.35 1127.74 864.14 1116.5 865.02 1200.31"/>
        <polygon class="cls-4" points="1064.1 376.42 863.37 366.13 862.56 284.14 1063.61 296.02 1064.1 376.42"/>
        <polygon class="cls-4" points="1064.74 479.34 974.31 475.95 965.57 476.34 864.43 473.09 863.6 389.25 1064.24 398.26 1064.74 479.34"/>
        <polygon class="cls-4" points="1066.63 783.87 975.73 782.79 968.73 785.75 867.55 785.59 866.74 703.4 1066.14 704.55 1066.63 783.87"/>
        <polygon class="cls-4" points="1067.27 884.91 976.79 886.61 971.67 888.05 868.59 889.52 867.78 807.77 1066.77 805.55 1067.27 884.91"/>
        <polygon class="cls-4" points="1065.98 984.69 979.82 986.09 972.14 988.98 867.68 991.06 866.89 910.39 1065.48 905.53 1065.98 984.69"/>
        <polygon class="cls-4" points="1066.59 1085.19 979.52 1087.49 971.3 1089.5 868.72 1094.25 867.89 1011 1066.09 1003.82 1066.59 1085.19"/>
        <polygon class="cls-4" points="1067.22 1185.06 978.75 1190.53 971.17 1192.74 869.76 1198.02 868.93 1114.21 1066.7 1103.57 1067.22 1185.06"/>
        <polygon class="cls-4" points="1066 682.65 975.96 680.14 969.02 682.02 866.51 681.9 865.7 599.08 1065.5 603.06 1066 682.65"/>
        <polygon class="cls-4" points="1065.37 581.22 972.89 578.38 968.07 580.18 865.47 577.74 864.64 493.73 1064.87 501.02 1065.37 581.22"/>
        <polygon class="cls-4" points="1263.27 281.77 1159.44 276.58 1148.44 277.34 1083.9 273.93 1083.9 273.91 1083.47 192.93 1263.04 205.67 1263.27 281.77"/>
        <polygon class="cls-4" points="615.21 244.33 536.09 239.26 528.38 236.71 371.01 228.74 369.33 142.25 613.83 159.6 615.21 244.33"/>
        <polygon class="cls-4" points="852.52 259.91 743.36 253.6 734.85 251.96 640.14 245.92 638.77 161.37 851.65 176.47 852.52 259.91"/>
        <polygon class="cls-4" points="1059.1 271.87 859.64 260.32 858.82 176.98 1058.61 191.16 1059.1 271.87"/>
      </g>
      <g>
        <text class="cls-3" transform="translate(483.37 1183.05)"><tspan x="0" y="0">1001</tspan></text>
        <text class="cls-3" transform="translate(478.12 1075.02)"><tspan x="0" y="0">1101</tspan></text>
        <text class="cls-3" transform="translate(475.3 971.34)"><tspan x="0" y="0">1201</tspan></text>
        <text class="cls-3" transform="translate(475.3 861.87)"><tspan x="0" y="0">1301</tspan></text>
        <text class="cls-3" transform="translate(475.3 753.73)"><tspan x="0" y="0">1401</tspan></text>
        <text class="cls-3" transform="translate(468.15 642.19)"><tspan x="0" y="0">1501</tspan></text>
        <text class="cls-3" transform="translate(472.28 532.18)"><tspan x="0" y="0">1601</tspan></text>
        <text class="cls-3" transform="translate(469.46 420.81)"><tspan x="0" y="0">1701</tspan></text>
        <text class="cls-3" transform="translate(466.64 309.67)"><tspan x="0" y="0">1801</tspan></text>
        <text class="cls-3" transform="translate(729.58 1171.85)"><tspan x="0" y="0">1002</tspan></text>
        <text class="cls-3" transform="translate(728.14 1070.69)"><tspan x="0" y="0">1102</tspan></text>
        <text class="cls-3" transform="translate(725.32 967.01)"><tspan x="0" y="0">1202</tspan></text>
        <text class="cls-3" transform="translate(725.32 857.55)"><tspan x="0" y="0">1302</tspan></text>
        <text class="cls-3" transform="translate(726.73 753.73)"><tspan x="0" y="0">1402</tspan></text>
        <text class="cls-3" transform="translate(726.73 647.77)"><tspan x="0" y="0">1502</tspan></text>
        <text class="cls-3" transform="translate(726.73 543)"><tspan x="0" y="0">1602</tspan></text>
        <text class="cls-3" transform="translate(724.08 440.68)"><tspan x="0" y="0">1702</tspan></text>
        <text class="cls-3" transform="translate(721.26 329.55)"><tspan x="0" y="0">1802</tspan></text>
        <text class="cls-3" transform="translate(945.33 1159.52)"><tspan x="0" y="0">1003</tspan></text>
        <text class="cls-3" transform="translate(943.9 1058.37)"><tspan x="0" y="0">1103</tspan></text>
        <text class="cls-3" transform="translate(941.08 954.69)"><tspan x="0" y="0">1203</tspan></text>
        <text class="cls-3" transform="translate(942.71 859.74)"><tspan x="0" y="0">1303</tspan></text>
        <text class="cls-3" transform="translate(944.12 755.92)"><tspan x="0" y="0">1403</tspan></text>
        <text class="cls-3" transform="translate(942.27 654)"><tspan x="0" y="0">1503</tspan></text>
        <text class="cls-3" transform="translate(942.27 549.22)"><tspan x="0" y="0">1603</tspan></text>
        <text class="cls-3" transform="translate(945.07 445.97)"><tspan x="0" y="0">1703</tspan></text>
        <text class="cls-3" transform="translate(943.44 347.07)"><tspan x="0" y="0">1803</tspan></text>
        <text class="cls-3" transform="translate(1159.03 1146.98)"><tspan x="0" y="0">1004</tspan></text>
        <text class="cls-3" transform="translate(1155.09 1052.74)"><tspan x="0" y="0">1104</tspan></text>
        <text class="cls-3" transform="translate(1152.27 949.06)"><tspan x="0" y="0">1204</tspan></text>
        <text class="cls-3" transform="translate(1153.9 854.12)"><tspan x="0" y="0">1304</tspan></text>
        <text class="cls-3" transform="translate(1147.53 748.53)"><tspan x="0" y="0">1404</tspan></text>
        <text class="cls-3" transform="translate(1149.16 648.07)"><tspan x="0" y="0">1504</tspan></text>
        <text class="cls-3" transform="translate(1151.85 551.25)"><tspan x="0" y="0">1604</tspan></text>
        <text class="cls-3" transform="translate(1151.85 450.15)"><tspan x="0" y="0">1704</tspan></text>
        <text class="cls-3" transform="translate(1156.41 351.52)"><tspan x="0" y="0">1804</tspan></text>
        <text class="cls-2" transform="translate(471.06 203.62)"><tspan x="0" y="0">1901</tspan></text>
        <text class="cls-2" transform="translate(720.13 223.06)"><tspan x="0" y="0">1902</tspan></text>
        <text class="cls-2" transform="translate(937.46 240.2)"><tspan x="0" y="0">1903</tspan></text>
        <text class="cls-2" transform="translate(1153.51 251.84)"><tspan x="0" y="0">1904</tspan></text>
      </g>
      <rect class="cls-1" x=".5" y=".5" width="1600" height="1600"/>
    </g>
  </g>
</svg>