<?xml version="1.0" encoding="UTF-8"?>
<svg id="Capa_2" data-name="Capa 2" xmlns="http://www.w3.org/2000/svg" viewBox="0 0 1601 1601">
  <defs>
    <style>
      .cls-1 {
        fill: none;
        stroke: #fff;
        stroke-miterlimit: 10;
      }

      .cls-2 {
        fill: #fff;
        stroke-width: 0px;
      }

      .cls-3 {
        font-family: MyriadPro-Regular, 'Myriad Pro';
        font-size: 25.01px;
      }
    </style>
  </defs>
  <g id="_1" data-name="1">
    <g>
      <g>
        <polygon class="cls-2" points="1252.92 436.86 1252.81 513.56 1152.02 497.41 1139.37 498.22 1083.06 488.4 1083.06 402.28 1252.92 436.86"/>
        <polygon class="cls-2" points="1252.65 634.69 1252.56 707.37 1153.08 692.97 1150.19 695.36 1083.06 685.4 1083.06 605.62 1252.65 634.69"/>
        <polygon class="cls-2" points="1253.23 899.28 1152.48 884.07 1147.94 884.28 1083.14 876.36 1083.06 874.48 1083.06 796.61 1252.52 820.89 1252.58 829.82 1253.23 899.28"/>
        <polygon class="cls-2" points="1252.46 993.95 1155.36 984.34 1147.67 983.59 1084.62 977.29 1084.22 901.03 1084.03 896.61 1252.25 919.31 1252.46 993.95"/>
        <polygon class="cls-2" points="1253 1180.77 1159.21 1174.98 1147.12 1174.19 1085.62 1170.77 1085.22 1093.34 1252.79 1110.64 1253 1180.77"/>
        <polygon class="cls-2" points="1253.27 1275.67 1159.15 1268.5 1148.42 1269.14 1086.12 1266.1 1085.72 1188.69 1253.06 1203.03 1253.27 1275.67"/>
        <polygon class="cls-2" points="1252.77 541.11 1252.69 610.18 1150.62 594.49 1149.19 596.66 1083.06 587.61 1083.06 509.2 1252.77 541.11"/>
        <polygon class="cls-2" points="1252.52 731.9 1252.42 803.39 1153.94 788.4 1148.64 787.74 1083.06 778.4 1083.06 705.22 1252.52 731.9"/>
        <polygon class="cls-2" points="1252.73 1087.84 1157.59 1078.56 1146.71 1079.46 1085.12 1073.5 1084.72 998.82 1252.52 1019.29 1252.73 1087.84"/>
        <polygon class="cls-2" points="635.24 402.24 564.28 388.82 557.84 381.63 420.2 356.08 404.63 357.24 402.84 263.85 633.76 310.85 635.24 402.24"/>
        <polygon class="cls-2" points="861.82 446.45 762.84 428.07 751.94 424.33 658.5 406.66 657.02 315.58 860.88 357.08 861.82 446.45"/>
        <polygon class="cls-2" points="1058.11 482.94 868.97 447.78 868.07 358.54 1057.59 397.12 1058.11 482.94"/>
        <polygon class="cls-2" points="862.88 548.7 762.8 531.82 752.65 527.36 660.23 511.91 658.88 429.44 862.03 467.64 862.88 548.7"/>
        <polygon class="cls-2" points="636.97 508.04 565.9 496.16 558.86 487.53 417.57 463.18 406.65 462.06 405.11 381.73 635.62 425.09 636.97 508.04"/>
        <polygon class="cls-2" points="638.68 611.93 565.07 600.3 558.86 594.41 416.51 573.5 408.76 571.33 407.19 489.72 637.33 529.19 638.68 611.93"/>
        <polygon class="cls-2" points="640.31 711.79 564.72 700.24 558.86 701.18 410.84 678.67 409.3 599.18 639.06 635.34 640.31 711.79"/>
        <polygon class="cls-2" points="642.02 816.6 566.53 805.95 560.71 805.43 412.9 786.07 411.26 700.39 640.66 733.25 642.02 816.6"/>
        <polygon class="cls-2" points="643.75 923.35 572.05 914.93 566.61 911.18 414.99 894.05 413.3 806.12 642.35 837.03 643.75 923.35"/>
        <polygon class="cls-2" points="645.46 1027.17 572.05 1019.1 566.61 1015.35 417.07 1001.97 415.42 917.12 644.1 945.03 645.46 1027.17"/>
        <polygon class="cls-2" points="647.12 1130.19 574.8 1123.9 567.72 1121.77 419.11 1107.45 417.51 1024.4 645.79 1047.97 647.12 1130.19"/>
        <polygon class="cls-2" points="648.77 1231.11 575.12 1225.23 569.66 1224.02 421.22 1216.52 419.57 1131.59 647.48 1151.11 648.77 1231.11"/>
        <polygon class="cls-2" points="863.94 649.82 760.19 633.55 753.63 630.09 661.92 615.6 660.57 533.17 863.09 567.89 863.94 649.82"/>
        <polygon class="cls-2" points="864.94 744.7 761.46 728.4 758.65 729.88 663.55 715.35 662.3 639.01 864.17 670.77 864.94 744.7"/>
        <polygon class="cls-2" points="866.03 847.24 762.63 833.4 758.27 833 665.26 819.87 663.9 736.57 865.17 765.41 866.03 847.24"/>
        <polygon class="cls-2" points="867.13 952.74 762.63 941.19 760.48 937.07 666.99 926.08 665.59 840.15 866.24 867.23 867.13 952.74"/>
        <polygon class="cls-2" points="868.17 1051.62 765.57 1041.47 759 1039.67 668.68 1029.73 667.34 947.86 867.34 972.27 868.17 1051.62"/>
        <polygon class="cls-2" points="869.24 1151.3 765.57 1143.03 759.4 1139.94 670.34 1132.21 669.01 1050.36 868.38 1070.96 869.24 1151.3"/>
        <polygon class="cls-2" points="870.26 1249.7 769.34 1241.92 760.84 1240.05 671.99 1232.96 670.7 1153.12 869.43 1170.14 870.26 1249.7"/>
        <polygon class="cls-2" points="1058.73 581.73 869.97 549.89 869.17 468.98 1058.25 504.54 1058.73 581.73"/>
        <polygon class="cls-2" points="1059.34 680.5 870.99 650.93 870.18 569.1 1058.86 601.47 1059.34 680.5"/>
        <polygon class="cls-2" points="1059.92 775.38 871.93 745.78 871.2 671.87 1059.48 701.51 1059.92 775.38"/>
        <polygon class="cls-2" points="1060.55 873.27 872.95 848.16 872.13 766.39 1060.05 793.32 1060.55 873.27"/>
        <polygon class="cls-2" points="1061.17 974.19 873.99 953.49 873.16 868.16 1060.67 893.47 1061.17 974.19"/>
        <polygon class="cls-2" points="1061.75 1070.77 874.99 1052.3 874.2 973.12 1061.3 995.95 1061.75 1070.77"/>
        <polygon class="cls-2" points="1062.36 1166.73 875.97 1151.84 875.18 1071.64 1061.88 1090.92 1062.36 1166.73"/>
        <polygon class="cls-2" points="1062.96 1264.56 876.95 1250.22 876.16 1170.73 1062.48 1186.69 1062.96 1264.56"/>
      </g>
      <g>
        <text class="cls-3" transform="translate(505.9 1185.78)"><tspan x="0" y="0">2001</tspan></text>
        <text class="cls-3" transform="translate(500.21 1080.46)"><tspan x="0" y="0">2101</tspan></text>
        <text class="cls-3" transform="translate(500.21 973.56)"><tspan x="0" y="0">2201</tspan></text>
        <text class="cls-3" transform="translate(500.21 868.39)"><tspan x="0" y="0">2301</tspan></text>
        <text class="cls-3" transform="translate(502.45 761.51)"><tspan x="0" y="0">2401</tspan></text>
        <text class="cls-3" transform="translate(499.72 661.7)"><tspan x="0" y="0">2501</tspan></text>
        <text class="cls-3" transform="translate(498.59 554.81)"><tspan x="0" y="0">2601</tspan></text>
        <text class="cls-3" transform="translate(493.01 446.6)"><tspan x="0" y="0">2701</tspan></text>
        <text class="cls-3" transform="translate(491.89 337.03)"><tspan x="0" y="0">2801</tspan></text>
        <text class="cls-3" transform="translate(743.46 1207.27)"><tspan x="0" y="0">2002</tspan></text>
        <text class="cls-3" transform="translate(739.25 1112.32)"><tspan x="0" y="0">2102</tspan></text>
        <text class="cls-3" transform="translate(739.25 1005.42)"><tspan x="0" y="0">2202</tspan></text>
        <text class="cls-3" transform="translate(735.72 906.73)"><tspan x="0" y="0">2302</tspan></text>
        <text class="cls-3" transform="translate(737.96 799.85)"><tspan x="0" y="0">2402</tspan></text>
        <text class="cls-3" transform="translate(735.23 700.05)"><tspan x="0" y="0">2502</tspan></text>
        <text class="cls-3" transform="translate(737.11 605.62)"><tspan x="0" y="0">2602</tspan></text>
        <text class="cls-3" transform="translate(731.53 497.41)"><tspan x="0" y="0">2702</tspan></text>
        <text class="cls-3" transform="translate(730.41 387.83)"><tspan x="0" y="0">2802</tspan></text>
        <text class="cls-3" transform="translate(946.8 1228.25)"><tspan x="0" y="0">2003</tspan></text>
        <text class="cls-3" transform="translate(942.58 1133.3)"><tspan x="0" y="0">2103</tspan></text>
        <text class="cls-3" transform="translate(941.08 1034.35)"><tspan x="0" y="0">2203</tspan></text>
        <text class="cls-3" transform="translate(937.55 935.66)"><tspan x="0" y="0">2303</tspan></text>
        <text class="cls-3" transform="translate(939.79 828.78)"><tspan x="0" y="0">2403</tspan></text>
        <text class="cls-3" transform="translate(937.06 728.97)"><tspan x="0" y="0">2503</tspan></text>
        <text class="cls-3" transform="translate(938.94 634.55)"><tspan x="0" y="0">2603</tspan></text>
        <text class="cls-3" transform="translate(937.43 537.73)"><tspan x="0" y="0">2703</tspan></text>
        <text class="cls-3" transform="translate(936.3 428.15)"><tspan x="0" y="0">2803</tspan></text>
        <text class="cls-3" transform="translate(1155.98 1244.2)"><tspan x="0" y="0">2004</tspan></text>
        <text class="cls-3" transform="translate(1155.76 1148.42)"><tspan x="0" y="0">2104</tspan></text>
        <text class="cls-3" transform="translate(1154.66 1054.35)"><tspan x="0" y="0">2204</tspan></text>
        <text class="cls-3" transform="translate(1148.53 957.03)"><tspan x="0" y="0">2304</tspan></text>
        <text class="cls-3" transform="translate(1150.77 855.97)"><tspan x="0" y="0">2404</tspan></text>
        <text class="cls-3" transform="translate(1148.04 766.54)"><tspan x="0" y="0">2504</tspan></text>
        <text class="cls-3" transform="translate(1152.22 666.42)"><tspan x="0" y="0">2604</tspan></text>
        <text class="cls-3" transform="translate(1150.7 569.61)"><tspan x="0" y="0">2704</tspan></text>
        <text class="cls-3" transform="translate(1149.89 468.98)"><tspan x="0" y="0">2804</tspan></text>
      </g>
      <rect class="cls-1" x=".5" y=".5" width="1600" height="1600"/>
    </g>
  </g>
</svg>