<?xml version="1.0" encoding="UTF-8"?>
<svg id="Capa_2" data-name="Capa 2" xmlns="http://www.w3.org/2000/svg" viewBox="0 0 1601 1601">
  <defs>
    <style>
      .cls-1 {
        fill: none;
        stroke: #fff;
        stroke-miterlimit: 10;
      }

      .cls-2 {
        font-size: 27.1px;
      }

      .cls-2, .cls-3 {
        font-family: MyriadPro-Regular, 'Myriad Pro';
      }

      .cls-4 {
        fill: #fff;
        stroke-width: 0px;
      }

      .cls-3 {
        font-size: 28.46px;
      }
    </style>
  </defs>
  <g id="_1" data-name="1">
    <g>
      <g>
        <polygon class="cls-4" points="1040.04 254.94 947.17 259.42 938.45 263.73 834.35 269.27 833.51 183.4 1039.53 169.3 1040.04 254.94"/>
      </g>
      <g>
        <text class="cls-3" transform="translate(449.97 1253.42)"><tspan x="0" y="0">PB 1</tspan></text>
        <text class="cls-3" transform="translate(706.69 1203.85)"><tspan x="0" y="0">PB 2</tspan></text>
        <text class="cls-3" transform="translate(703.32 1096.61)"><tspan x="0" y="0">102</tspan></text>
        <text class="cls-3" transform="translate(709.99 988.01)"><tspan x="0" y="0">202</tspan></text>
        <text class="cls-3" transform="translate(709.77 890.9)"><tspan x="0" y="0">302</tspan></text>
        <text class="cls-3" transform="translate(918.24 1166.85)"><tspan x="0" y="0">PB 3</tspan></text>
        <text class="cls-3" transform="translate(926.52 1059.91)"><tspan x="0" y="0">103</tspan></text>
        <text class="cls-3" transform="translate(928.54 956.57)"><tspan x="0" y="0">203</tspan></text>
        <text class="cls-3" transform="translate(922.49 859.22)"><tspan x="0" y="0">303</tspan></text>
        <text class="cls-3" transform="translate(1126.48 1126.81)"><tspan x="0" y="0">PB 4</tspan></text>
        <text class="cls-3" transform="translate(1132.47 1021.88)"><tspan x="0" y="0">104</tspan></text>
        <text class="cls-3" transform="translate(1143.61 923.64)"><tspan x="0" y="0">204</tspan></text>
        <text class="cls-3" transform="translate(1143.61 824.5)"><tspan x="0" y="0">304</tspan></text>
        <text class="cls-3" transform="translate(453.67 1143.49)"><tspan x="0" y="0">101</tspan></text>
        <text class="cls-3" transform="translate(453.67 1033.57)"><tspan x="0" y="0">201</tspan></text>
        <text class="cls-3" transform="translate(455.82 930.58)"><tspan x="0" y="0">301</tspan></text>
        <text class="cls-3" transform="translate(453.62 590.22)"><tspan x="0" y="0">601</tspan></text>
        <text class="cls-3" transform="translate(449.58 480.69)"><tspan x="0" y="0">701</tspan></text>
        <text class="cls-3" transform="translate(451.56 366.04)"><tspan x="0" y="0">801</tspan></text>
        <text class="cls-3" transform="translate(704.84 786.28)"><tspan x="0" y="0">402</tspan></text>
        <text class="cls-3" transform="translate(924.96 749.32)"><tspan x="0" y="0">403</tspan></text>
        <text class="cls-3" transform="translate(1141.94 724.23)"><tspan x="0" y="0">404</tspan></text>
        <text class="cls-3" transform="translate(450.89 825.95)"><tspan x="0" y="0">401</tspan></text>
        <text class="cls-3" transform="translate(705.43 674.93)"><tspan x="0" y="0">502</tspan></text>
        <text class="cls-3" transform="translate(924.96 645)"><tspan x="0" y="0">503</tspan></text>
        <text class="cls-3" transform="translate(1146.66 621.07)"><tspan x="0" y="0">504</tspan></text>
        <text class="cls-3" transform="translate(451.4 705.73)"><tspan x="0" y="0">501</tspan></text>
        <text class="cls-3" transform="translate(704.3 570.25)"><tspan x="0" y="0">602</tspan></text>
        <text class="cls-3" transform="translate(700.26 460.72)"><tspan x="0" y="0">702</tspan></text>
        <text class="cls-3" transform="translate(698.48 354.27)"><tspan x="0" y="0">802</tspan></text>
        <text class="cls-3" transform="translate(924.96 541.4)"><tspan x="0" y="0">603</tspan></text>
        <text class="cls-3" transform="translate(926.68 442.7)"><tspan x="0" y="0">703</tspan></text>
        <text class="cls-3" transform="translate(924.9 336.24)"><tspan x="0" y="0">803</tspan></text>
        <text class="cls-3" transform="translate(1152.72 519.69)"><tspan x="0" y="0">604</tspan></text>
        <text class="cls-3" transform="translate(1154.44 420.99)"><tspan x="0" y="0">704</tspan></text>
        <text class="cls-3" transform="translate(1149.31 323.07)"><tspan x="0" y="0">804</tspan></text>
        <text class="cls-2" transform="translate(446.88 255.93)"><tspan x="0" y="0">901</tspan></text>
        <text class="cls-2" transform="translate(693.09 244.72)"><tspan x="0" y="0">902</tspan></text>
        <text class="cls-2" transform="translate(908.71 227.55)"><tspan x="0" y="0">903</tspan></text>
        <text class="cls-2" transform="translate(1122.41 215.01)"><tspan x="0" y="0">904</tspan></text>
      </g>
      <rect class="cls-1" x=".5" y=".5" width="1600" height="1600"/>
    </g>
  </g>
</svg>