<?xml version="1.0" encoding="utf-8"?>
<!-- Generator: Adobe Illustrator 27.8.0, SVG Export Plug-In . SVG Version: 6.00 Build 0)  -->
<svg version="1.1" id="Capa_2_00000039814373716041396960000000640067318006137270_"
	 xmlns="http://www.w3.org/2000/svg" xmlns:xlink="http://www.w3.org/1999/xlink" x="0px" y="0px" viewBox="0 0 1601 1601"
	 style="enable-background:new 0 0 1601 1601;" xml:space="preserve">
<style type="text/css">
	.st0{fill:#FFFFFF;}
	.st1{fill:none;stroke:#FFFFFF;stroke-miterlimit:10;}
	.st2{font-family:'ArialMT';}
	.st3{font-size:30.09px;}
</style>
<g id="_1">
	<g>
		<polygon class="st0" points="1031.6,1175.7 1031.6,1265.4 1133.5,1277.3 1133.5,1187.6 		"/>
		<polygon class="st0" points="1139.4,1068 1139.3,1158.6 1233.7,1168 1233.4,1080.4 		"/>
		<polygon class="st0" points="1254.3,1083.6 1252.6,1172.4 1399.6,1185.8 1399.6,1100.5 		"/>
		<polygon class="st0" points="1139.3,1179.6 1139.3,1268.9 1230,1278.2 1230,1188.5 		"/>
		<polygon class="st0" points="1252.6,1194.9 1252.6,1281.7 1399.6,1296.1 1399.6,1211.5 		"/>
		<polygon class="st0" points="349.3,699.9 349.3,797.1 477.6,815.6 477.6,720 		"/>
		<polygon class="st0" points="490.6,722.9 490.6,815.6 604.5,835.1 604.5,742.1 		"/>
		<polygon class="st0" points="349.3,825.3 349.3,930.8 477.6,944.8 477.6,846.2 		"/>
		<polygon class="st0" points="488.8,848.7 488.8,947 602.5,961.8 602.5,867 		"/>
		<polygon class="st0" points="349.3,955.9 349.3,1058.5 477.6,1075 477.6,973.8 		"/>
		<polygon class="st0" points="490.6,976.6 490.6,1075 602.5,1092.6 602.5,993.3 		"/>
		<polygon class="st0" points="349.3,1085.2 349.3,1186.1 477.6,1200.8 477.6,1101.6 		"/>
		<polygon class="st0" points="488.8,1102.8 488.8,1205.4 604.5,1215 604.5,1118.1 		"/>
		<polygon class="st0" points="872.2,458.4 986.8,477.5 986.8,573.6 872.2,554.9 		"/>
		<polygon class="st0" points="708.2,420.2 708.2,518.6 611.1,497.5 610.9,394 		"/>
		<polygon class="st0" points="872.2,582.1 981.3,601.2 981.3,690.5 872.2,673.5 		"/>
		<polygon class="st0" points="981.3,718.2 872.2,701 872.2,791.5 979.1,805.8 		"/>
		<polygon class="st0" points="872.2,816.3 978.7,834.3 978.7,922.7 872.2,907.6 		"/>
		<polygon class="st0" points="981.3,947.2 872.2,937.3 872.2,1024.1 979.6,1031.9 		"/>
		<polygon class="st0" points="979.6,1060.6 872.2,1052.6 872.2,1139.8 977.4,1147.7 		"/>
		<polygon class="st0" points="979.6,1173.2 870.8,1166.6 870.8,1251 979.6,1258.8 		"/>
		<polygon class="st0" points="708.2,547.5 610.9,525.1 610.9,627.2 709.9,648.8 		"/>
		<polygon class="st0" points="708.2,667.1 708.2,760.4 610.9,747.8 610.9,653.1 		"/>
		<polygon class="st0" points="708.2,781.6 610.9,771.8 610.9,872.5 708.2,880.3 		"/>
		<polygon class="st0" points="708.2,903.2 610.9,894.2 610.9,993.3 708.2,1003.1 		"/>
		<polygon class="st0" points="709.9,1023 610.9,1011.2 610.9,1113.2 709.9,1123.8 		"/>
		<polygon class="st0" points="709.9,1144.6 610.9,1135.4 610.9,1232.8 709.9,1239.8 		"/>
		<rect x="0.5" y="0.5" class="st1" width="1600" height="1600"/>
		<g>
			<text transform="matrix(1 0 0 1 386.08 1163.47)" class="st2 st3">2205</text>
			<text transform="matrix(1 0 0 1 384.23 1019.86)" class="st2 st3">2305</text>
			<text transform="matrix(1 0 0 1 384.23 783.22)" class="st2 st3">2505</text>
			<text transform="matrix(1 0 0 1 384.23 901.73)" class="st2 st3">2405</text>
			<text transform="matrix(1 0 0 1 384.23 643.66)" class="st2 st3">2605</text>
			<text transform="matrix(1 0 0 1 384.23 394.28)" class="st2 st3">2805</text>
			<text transform="matrix(1 0 0 1 384.23 511.69)" class="st2 st3">2705</text>
			<text transform="matrix(1 0 0 1 516.85 1171.53)" class="st2 st3">2206</text>
			<text transform="matrix(1 0 0 1 516.85 1046.65)" class="st2 st3">2306</text>
			<text transform="matrix(1 0 0 1 515.93 787.26)" class="st2 st3">2506</text>
			<text transform="matrix(1 0 0 1 516.85 923.67)" class="st2 st3">2406</text>
			<text transform="matrix(1 0 0 1 516.86 667.59)" class="st2 st3">2606</text>
			<text transform="matrix(1 0 0 1 514.94 418.54)" class="st2 st3">2806</text>
			<text transform="matrix(1 0 0 1 516.85 543.19)" class="st2 st3">2706</text>
			<text transform="matrix(1 0 0 1 631.54 1190.3101)" class="st2 st3">2207</text>
			<text transform="matrix(1 0 0 1 631.54 1074.9301)" class="st2 st3">2307</text>
			<text transform="matrix(1 0 0 1 630.62 837.14)" class="st2 st3">2507</text>
			<text transform="matrix(1 0 0 1 631.54 953.65)" class="st2 st3">2407</text>
			<text transform="matrix(1 0 0 1 631.55 717.46)" class="st2 st3">2607</text>
			<text transform="matrix(1 0 0 1 629.62 468.41)" class="st2 st3">2807</text>
			<text transform="matrix(1 0 0 1 631.54 593.06)" class="st2 st3">2707</text>
			<text transform="matrix(1 0 0 1 895.82 1232.05)" class="st2 st3">2208</text>
			<text transform="matrix(1 0 0 1 895.82 1116.67)" class="st2 st3">2308</text>
			<text transform="matrix(1 0 0 1 899.58 887.56)" class="st2 st3">2508</text>
			<text transform="matrix(1 0 0 1 895.82 995.39)" class="st2 st3">2408</text>
			<text transform="matrix(1 0 0 1 900.5 767.89)" class="st2 st3">2608</text>
			<text transform="matrix(1 0 0 1 898.58 526.98)" class="st2 st3">2808</text>
			<text transform="matrix(1 0 0 1 900.5 651.63)" class="st2 st3">2708</text>
			<text transform="matrix(1 0 0 1 1051.55 1236.08)" class="st2 st3">2209</text>
			<text transform="matrix(1 0 0 1 1051.55 1117.91)" class="st2 st3">2309</text>
			<text transform="matrix(1 0 0 1 1055.3101 892.38)" class="st2 st3">2509</text>
			<text transform="matrix(1 0 0 1 1051.55 1012.8098)" class="st2 st3">2409</text>
			<text transform="matrix(1 0 0 1 1056.24 769.54)" class="st2 st3">2609</text>
			<text transform="matrix(1 0 0 1 1054.3101 544.4)" class="st2 st3">2809</text>
			<text transform="matrix(1 0 0 1 1056.23 653.28)" class="st2 st3">2709</text>
			<text transform="matrix(1 0 0 1 1155.12 1236.41)" class="st2 st3">2210</text>
			<text transform="matrix(1 0 0 1 1155.12 1131.9301)" class="st2 st3">2310</text>
			<text transform="matrix(1 0 0 1 1161.64 913.55)" class="st2 st3">2510</text>
			<text transform="matrix(1 0 0 1 1155.12 1026.83)" class="st2 st3">2410</text>
			<text transform="matrix(1 0 0 1 1162.5699 790.7)" class="st2 st3">2610</text>
			<text transform="matrix(1 0 0 1 1160.64 565.56)" class="st2 st3">2810</text>
			<text transform="matrix(1 0 0 1 1162.5601 674.45)" class="st2 st3">2710</text>
			<text transform="matrix(1 0 0 1 1292.66 1254.66)" class="st2 st3">2211</text>
			<text transform="matrix(1 0 0 1 1292.66 1143.47)" class="st2 st3">2311</text>
			<text transform="matrix(1 0 0 1 1299.1801 930.12)" class="st2 st3">2511</text>
			<text transform="matrix(1 0 0 1 1294.98 1047.34)" class="st2 st3">2411</text>
			<text transform="matrix(1 0 0 1 1306.39 815.65)" class="st2 st3">2611</text>
			<text transform="matrix(1 0 0 1 1307.41 600.29)" class="st2 st3">2811</text>
			<text transform="matrix(1 0 0 1 1309.3199 709.17)" class="st2 st3">2711</text>
		</g>
	</g>
</g>
</svg>
