<?xml version="1.0" encoding="UTF-8"?>
<svg id="Capa_2" data-name="Capa 2" xmlns="http://www.w3.org/2000/svg" viewBox="0 0 1601 1601">
  <defs>
    <style>
      .cls-1 {
        fill: none;
        stroke: #fff;
        stroke-miterlimit: 10;
      }

      .cls-2 {
        fill: #fff;
        stroke-width: 0px;
      }

      .cls-3 {
        font-family: MyriadPro-Regular, 'Myriad Pro';
        font-size: 33.23px;
      }
    </style>
  </defs>
  <g id="_4" data-name="4">
    <g>
      <polygon class="cls-2" points="391.85 1265.95 512.05 1244.66 510.31 1330.46 392.35 1353.6 391.85 1265.95"/>
      <polygon class="cls-2" points="914.91 1136.67 807.56 1141.8 807.56 1231.29 914.91 1226.19 914.91 1136.67"/>
      <polygon class="cls-2" points="623.48 1196.77 516.43 1203.81 516.43 1303.35 623.48 1290.68 623.48 1196.77"/>
      <polygon class="cls-2" points="984.87 1270.3 984.87 1358.11 1082.53 1338.86 1082.53 1253.87 984.87 1270.3"/>
      <polygon class="cls-2" points="1089.58 1251.68 1089.58 1335.88 1184.46 1317.41 1184.46 1234.15 1089.58 1251.68"/>
      <polygon class="cls-2" points="1203.2 1230.39 1203.2 1311.47 1358.85 1290.1 1358.85 1207.31 1203.2 1230.39"/>
      <polygon class="cls-2" points="251.93 1412.26 380.11 1392.85 380.11 1478.78 251.93 1499.88 251.93 1412.26"/>
      <polygon class="cls-2" points="391.85 1388.78 512.05 1367.5 510.31 1453.29 392.35 1476.43 391.85 1388.78"/>
      <polygon class="cls-2" points="914.91 1259.5 807.56 1264.63 807.56 1354.13 914.91 1349.03 914.91 1259.5"/>
      <polygon class="cls-2" points="623.48 1319.6 516.43 1326.65 516.43 1426.19 623.48 1413.51 623.48 1319.6"/>
      <rect class="cls-1" x=".5" y=".5" width="1600" height="1600"/>
      <g>
        <text class="cls-3" transform="translate(291.07 1207.52)"><tspan x="0" y="0">505</tspan></text>
        <text class="cls-3" transform="translate(424.61 1185.56)"><tspan x="0" y="0">506</tspan></text>
        <text class="cls-3" transform="translate(540.05 1132.28)"><tspan x="0" y="0">507</tspan></text>
        <text class="cls-3" transform="translate(835.69 1068.95)"><tspan x="0" y="0">508</tspan></text>
        <text class="cls-3" transform="translate(1007.31 1068.59)"><tspan x="0" y="0">509</tspan></text>
        <text class="cls-3" transform="translate(1112.65 1046.62)"><tspan x="0" y="0">510</tspan></text>
        <text class="cls-3" transform="translate(1255.94 1024.66)"><tspan x="0" y="0">511</tspan></text>
        <text class="cls-3" transform="translate(291.07 1333.8)"><tspan x="0" y="0">405</tspan></text>
        <text class="cls-3" transform="translate(424.61 1311.83)"><tspan x="0" y="0">406</tspan></text>
        <text class="cls-3" transform="translate(540.05 1258.56)"><tspan x="0" y="0">407</tspan></text>
        <text class="cls-3" transform="translate(835.69 1195.23)"><tspan x="0" y="0">408</tspan></text>
        <text class="cls-3" transform="translate(1007.31 1194.86)"><tspan x="0" y="0">409</tspan></text>
        <text class="cls-3" transform="translate(1112.65 1172.9)"><tspan x="0" y="0">410</tspan></text>
        <text class="cls-3" transform="translate(1255.94 1150.94)"><tspan x="0" y="0">411</tspan></text>
        <text class="cls-3" transform="translate(291.07 1454.88)"><tspan x="0" y="0">305</tspan></text>
        <text class="cls-3" transform="translate(424.61 1432.91)"><tspan x="0" y="0">306</tspan></text>
        <text class="cls-3" transform="translate(540.05 1379.64)"><tspan x="0" y="0">307</tspan></text>
        <text class="cls-3" transform="translate(835.69 1316.31)"><tspan x="0" y="0">308</tspan></text>
        <text class="cls-3" transform="translate(1007.31 1315.94)"><tspan x="0" y="0">309</tspan></text>
        <text class="cls-3" transform="translate(1112.65 1293.98)"><tspan x="0" y="0">310</tspan></text>
        <text class="cls-3" transform="translate(1255.94 1272.02)"><tspan x="0" y="0">311</tspan></text>
      </g>
    </g>
  </g>
</svg>