<?xml version="1.0" encoding="UTF-8"?>
<svg id="Capa_2" data-name="Capa 2" xmlns="http://www.w3.org/2000/svg" viewBox="0 0 1601 1601">
  <defs>
    <style>
      .cls-1 {
        fill: none;
        stroke: #fff;
        stroke-miterlimit: 10;
      }

      .cls-2 {
        fill: #fff;
        stroke-width: 0px;
      }

      .cls-3 {
        font-family: MyriadPro-Regular, 'Myriad Pro';
        font-size: 33.23px;
      }
    </style>
  </defs>
  <g id="_4" data-name="4">
    <g>
      <polygon class="cls-2" points="982.21 280.82 982.21 376.6 1083.63 366.58 1083.63 276.43 982.21 280.82"/>
      <polygon class="cls-2" points="1090.52 276.43 1090.52 367.21 1188.8 358.45 1188.8 268.92 1090.52 276.43"/>
      <polygon class="cls-2" points="1210.25 268.92 1210.25 356.41 1368.48 345.93 1368.48 262.04 1210.25 268.92"/>
      <polygon class="cls-2" points="982.21 397.89 982.21 494.92 1078.86 485.69 1078.62 391 982.21 397.89"/>
      <polygon class="cls-2" points="1088.17 389.49 1088.17 484.44 1188.8 474.73 1188.8 384.11 1088.17 389.49"/>
      <polygon class="cls-2" points="1210.25 384.11 1210.25 471.45 1368.48 460.49 1368.48 372.85 1210.25 384.11"/>
      <polygon class="cls-2" points="982.21 518.09 982.21 612.62 1080.5 603.86 1080.5 509.95 982.21 518.09"/>
      <polygon class="cls-2" points="1088.17 509.95 1088.17 602.45 1184.42 590.71 1184.42 503.38 1088.17 509.95"/>
      <polygon class="cls-2" points="1206.96 499.62 1206.96 586.48 1367.77 574.2 1367.77 487.8 1206.96 499.62"/>
      <polygon class="cls-2" points="982.21 635.16 982.21 728.44 1076.74 717.8 1076.74 625.77 982.21 635.16"/>
      <polygon class="cls-2" points="1085.82 623.89 1085.82 716.86 1184.42 703.4 1184.42 615.44 1085.82 623.89"/>
      <polygon class="cls-2" points="1205.08 612.62 1205.08 701.99 1363.55 686.41 1363.55 600.96 1205.08 612.62"/>
      <polygon class="cls-2" points="982.21 753.48 982.21 847.39 1076.74 836.12 1076.74 741.58 982.21 753.48"/>
      <polygon class="cls-2" points="1084.61 741.32 1084.42 836.13 1184.42 820.15 1184.42 728.44 1084.61 741.32"/>
      <polygon class="cls-2" points="1203.2 728.44 1203.2 814.21 1363.55 797.22 1363.55 711.77 1203.2 728.44"/>
      <polygon class="cls-2" points="984.87 870.08 984.87 964.46 1076.74 949.9 1076.74 856.93 984.87 870.08"/>
      <polygon class="cls-2" points="1082.53 856.93 1082.53 948.49 1184.42 931.59 1184.42 844.26 1082.53 856.93"/>
      <polygon class="cls-2" points="1203.2 841.44 1203.2 927.36 1358.85 908.03 1358.85 821.17 1203.2 841.44"/>
      <polygon class="cls-2" points="984.87 983.24 984.87 1081.53 1080.81 1059.3 1080.33 968.55 984.87 983.24"/>
      <polygon class="cls-2" points="1089.58 968.55 1089.58 1054.66 1184.46 1036.07 1185.19 952.57 1089.58 968.55"/>
      <polygon class="cls-2" points="1203.2 948.49 1203.2 1034.42 1358.85 1013.68 1358.85 929.71 1203.2 948.49"/>
      <polygon class="cls-2" points="984.87 1100.15 984.87 1187.95 1082.53 1168.7 1082.53 1083.72 984.87 1100.15"/>
      <polygon class="cls-2" points="1089.58 1081.53 1089.58 1165.73 1184.46 1147.26 1184.46 1064 1089.58 1081.53"/>
      <polygon class="cls-2" points="1203.2 1060.24 1203.2 1141.31 1358.85 1119.95 1358.85 1037.16 1203.2 1060.24"/>
      <polygon class="cls-2" points="375.42 313.21 375.42 415.1 233.15 422.3 233.15 319.63 375.42 313.21"/>
      <polygon class="cls-2" points="387.16 313.21 387.16 412.76 517.22 400.08 517.22 306.8 387.16 313.21"/>
      <polygon class="cls-2" points="232.81 444.84 375.42 438.27 375.42 545.71 233.48 554.08 232.81 444.84"/>
      <polygon class="cls-2" points="389.27 437.17 389.27 542.82 513.93 531.08 513.93 432.01 389.27 437.17"/>
      <polygon class="cls-2" points="236.77 581.11 375.42 570.05 375.42 678.04 236.33 693.04 236.77 581.11"/>
      <polygon class="cls-2" points="387.16 568.17 387.16 676.63 513.93 662.08 513.93 558.78 387.16 568.17"/>
      <polygon class="cls-2" points="377.45 701.99 377.45 803.41 240.01 818.28 237.89 711.52 377.45 701.99"/>
      <polygon class="cls-2" points="389.97 699.64 389.97 803.88 513.93 786.97 513.93 686.96 389.97 699.64"/>
      <polygon class="cls-2" points="240.01 843.04 375.42 828.29 375.42 931.59 241.85 952.21 240.01 843.04"/>
      <polygon class="cls-2" points="389.97 828.29 389.97 930.18 513.93 910.46 513.93 813.74 389.97 828.29"/>
      <polygon class="cls-2" points="244.02 974.35 377.45 959.14 377.45 1060.55 244.3 1077.11 244.02 974.35"/>
      <polygon class="cls-2" points="389.97 955.54 389.97 1057.42 513.93 1033.48 513.93 937.69 389.97 955.54"/>
      <polygon class="cls-2" points="247.23 1105.32 377.45 1084.97 377.45 1198.6 249 1219.84 247.23 1105.32"/>
      <polygon class="cls-2" points="389.97 1082.47 512.05 1064.62 512.05 1173.24 389.97 1195.47 389.97 1082.47"/>
      <polygon class="cls-2" points="251.93 1242.11 380.11 1222.7 380.11 1308.62 251.93 1329.73 251.93 1242.11"/>
      <polygon class="cls-2" points="391.85 1218.63 512.05 1197.34 510.31 1283.14 392.35 1306.28 391.85 1218.63"/>
      <polygon class="cls-2" points="922.34 273.36 804.13 275.1 804.13 365.88 920.47 364.14 922.34 273.36"/>
      <polygon class="cls-2" points="920.62 389.49 804.13 391.24 804.13 479.82 919.37 478.08 920.62 389.49"/>
      <polygon class="cls-2" points="914.13 511.83 804.13 512.54 804.13 604.81 916.16 600.57 914.13 511.83"/>
      <polygon class="cls-2" points="916.16 627.96 804.13 629.61 804.13 723.8 916.16 719.05 916.16 627.96"/>
      <polygon class="cls-2" points="913.97 745.03 804.13 750.05 804.13 840.72 913.97 834.87 913.97 745.03"/>
      <polygon class="cls-2" points="913.97 861.16 802.79 866.1 802.79 954.84 914.91 952.19 913.97 861.16"/>
      <polygon class="cls-2" points="914.91 976.98 805.34 983.12 807.56 1065.37 913.97 1061.81 914.91 976.98"/>
      <polygon class="cls-2" points="914.91 1089.35 807.56 1094.48 807.56 1183.98 914.91 1178.88 914.91 1089.35"/>
      <polygon class="cls-2" points="625.65 288.25 522.07 291.77 522.07 393.5 625.32 389.3 625.65 288.25"/>
      <polygon class="cls-2" points="625.65 415.28 518.94 419.8 518.94 525.6 625.65 518.58 625.65 415.28"/>
      <polygon class="cls-2" points="622.86 537.14 518.94 542.82 518.94 646.43 625.48 642.41 622.86 537.14"/>
      <polygon class="cls-2" points="625.48 661.81 518.94 665.52 518.94 770.38 625.48 765.74 625.48 661.81"/>
      <polygon class="cls-2" points="625.48 779.83 518.94 790.22 518.94 892.98 625.48 884.67 625.48 779.83"/>
      <polygon class="cls-2" points="624 898.91 518.94 909.99 518.94 1009.84 624.22 1000.67 624 898.91"/>
      <polygon class="cls-2" points="623.48 1028.31 518.94 1034.26 518.94 1144.13 623.48 1135.05 623.48 1028.31"/>
      <polygon class="cls-2" points="623.48 1149.45 516.43 1156.5 516.43 1256.04 623.48 1243.36 623.48 1149.45"/>
      <rect class="cls-1" x=".5" y=".5" width="1600" height="1600"/>
      <g>
        <text class="cls-3" transform="translate(285.79 1029.6)"><tspan x="0" y="0">805</tspan></text>
        <text class="cls-3" transform="translate(285.79 1164.71)"><tspan x="0" y="0">705</tspan></text>
        <text class="cls-3" transform="translate(416.5 1142.47)"><tspan x="0" y="0">706</tspan></text>
        <text class="cls-3" transform="translate(291.07 1286.16)"><tspan x="0" y="0">605</tspan></text>
        <text class="cls-3" transform="translate(424.61 1264.2)"><tspan x="0" y="0">606</tspan></text>
        <text class="cls-3" transform="translate(540.05 1095.62)"><tspan x="0" y="0">707</tspan></text>
        <text class="cls-3" transform="translate(540.05 1210.93)"><tspan x="0" y="0">607</tspan></text>
        <text class="cls-3" transform="translate(831.36 1033.34)"><tspan x="0" y="0">708</tspan></text>
        <text class="cls-3" transform="translate(835.69 1147.59)"><tspan x="0" y="0">608</tspan></text>
        <text class="cls-3" transform="translate(1008.44 1032.24)"><tspan x="0" y="0">709</tspan></text>
        <text class="cls-3" transform="translate(1007.31 1147.23)"><tspan x="0" y="0">609</tspan></text>
        <text class="cls-3" transform="translate(1112.65 1010.27)"><tspan x="0" y="0">710</tspan></text>
        <text class="cls-3" transform="translate(1112.65 1125.27)"><tspan x="0" y="0">610</tspan></text>
        <text class="cls-3" transform="translate(1254.75 887.92)"><tspan x="0" y="0">811</tspan></text>
        <text class="cls-3" transform="translate(1249.81 991.05)"><tspan x="0" y="0">711</tspan></text>
        <text class="cls-3" transform="translate(1255.94 1103.3)"><tspan x="0" y="0">611</tspan></text>
        <text class="cls-3" transform="translate(285.79 1029.6)"><tspan x="0" y="0">805</tspan></text>
        <text class="cls-3" transform="translate(274.2 768.29)"><tspan x="0" y="0">1005</tspan></text>
        <text class="cls-3" transform="translate(285.79 899.15)"><tspan x="0" y="0">905</tspan></text>
        <text class="cls-3" transform="translate(277.27 640.48)"><tspan x="0" y="0">1105</tspan></text>
        <text class="cls-3" transform="translate(277.27 379.16)"><tspan x="0" y="0">1305</tspan></text>
        <text class="cls-3" transform="translate(277.27 510.03)"><tspan x="0" y="0">1205</tspan></text>
        <text class="cls-3" transform="translate(428.94 1013.01)"><tspan x="0" y="0">806</tspan></text>
        <text class="cls-3" transform="translate(420.65 758.04)"><tspan x="0" y="0">1006</tspan></text>
        <text class="cls-3" transform="translate(426.02 884.37)"><tspan x="0" y="0">906</tspan></text>
        <text class="cls-3" transform="translate(418.43 625.91)"><tspan x="0" y="0">1106</tspan></text>
        <text class="cls-3" transform="translate(423.72 373.65)"><tspan x="0" y="0">1306</tspan></text>
        <text class="cls-3" transform="translate(423.72 504.51)"><tspan x="0" y="0">1206</tspan></text>
        <text class="cls-3" transform="translate(547.17 962.3)"><tspan x="0" y="0">807</tspan></text>
        <text class="cls-3" transform="translate(537.98 724.93)"><tspan x="0" y="0">1007</tspan></text>
        <text class="cls-3" transform="translate(543.34 851.26)"><tspan x="0" y="0">907</tspan></text>
        <text class="cls-3" transform="translate(538.11 603.95)"><tspan x="0" y="0">1107</tspan></text>
        <text class="cls-3" transform="translate(541.09 348.21)"><tspan x="0" y="0">1307</tspan></text>
        <text class="cls-3" transform="translate(541.09 479.07)"><tspan x="0" y="0">1207</tspan></text>
        <text class="cls-3" transform="translate(835.76 916.41)"><tspan x="0" y="0">808</tspan></text>
        <text class="cls-3" transform="translate(826.57 689.06)"><tspan x="0" y="0">1008</tspan></text>
        <text class="cls-3" transform="translate(831.93 805.37)"><tspan x="0" y="0">908</tspan></text>
        <text class="cls-3" transform="translate(826.7 570.1)"><tspan x="0" y="0">1108</tspan></text>
        <text class="cls-3" transform="translate(829.68 332.31)"><tspan x="0" y="0">1308</tspan></text>
        <text class="cls-3" transform="translate(829.68 444.42)"><tspan x="0" y="0">1208</tspan></text>
        <text class="cls-3" transform="translate(1007.73 921.76)"><tspan x="0" y="0">809</tspan></text>
        <text class="cls-3" transform="translate(998.54 688.77)"><tspan x="0" y="0">1009</tspan></text>
        <text class="cls-3" transform="translate(1003.9 802.64)"><tspan x="0" y="0">909</tspan></text>
        <text class="cls-3" transform="translate(999.13 575.37)"><tspan x="0" y="0">1109</tspan></text>
        <text class="cls-3" transform="translate(1001.65 332.01)"><tspan x="0" y="0">1309</tspan></text>
        <text class="cls-3" transform="translate(997.64 449.74)"><tspan x="0" y="0">1209</tspan></text>
        <text class="cls-3" transform="translate(1112.16 908.56)"><tspan x="0" y="0">810</tspan></text>
        <text class="cls-3" transform="translate(1102.55 676.95)"><tspan x="0" y="0">1010</tspan></text>
        <text class="cls-3" transform="translate(1108.25 790.78)"><tspan x="0" y="0">910</tspan></text>
        <text class="cls-3" transform="translate(1102.55 562.16)"><tspan x="0" y="0">1110</tspan></text>
        <text class="cls-3" transform="translate(1104.74 326.24)"><tspan x="0" y="0">1310</tspan></text>
        <text class="cls-3" transform="translate(1102.31 440.7)"><tspan x="0" y="0">1210</tspan></text>
        <text class="cls-3" transform="translate(1254.43 664.23)"><tspan x="0" y="0">1011</tspan></text>
        <text class="cls-3" transform="translate(1260.13 778.06)"><tspan x="0" y="0">911</tspan></text>
        <text class="cls-3" transform="translate(1254.43 549.44)"><tspan x="0" y="0">1111</tspan></text>
        <text class="cls-3" transform="translate(1256.62 318.22)"><tspan x="0" y="0">1311</tspan></text>
        <text class="cls-3" transform="translate(1254.19 432.68)"><tspan x="0" y="0">1211</tspan></text>
      </g>
    </g>
  </g>
</svg>