<?xml version="1.0" encoding="UTF-8"?>
<svg id="Capa_2" data-name="Capa 2" xmlns="http://www.w3.org/2000/svg" viewBox="0 0 1601 1601">
  <defs>
    <style>
      .cls-1 {
        font-family: MyriadPro-Regular, 'Myriad Pro';
        font-size: 34.15px;
      }

      .cls-2 {
        fill: none;
        stroke: #fff;
        stroke-miterlimit: 10;
      }

      .cls-3 {
        fill: #fff;
        stroke-width: 0px;
      }
    </style>
  </defs>
  <g id="_5" data-name="5">
    <g>
      <polygon class="cls-3" points="984.12 352.8 1091.7 363.88 1093.6 466.71 984.12 460.22 984.12 352.8"/>
      <polygon class="cls-3" points="1104.23 368.62 1102.62 466.71 1202.76 472.56 1202.76 376.69 1104.23 368.62"/>
      <polygon class="cls-3" points="1229.03 379.38 1229.03 474.94 1390.08 487.91 1392.14 394.25 1229.03 379.38"/>
      <polygon class="cls-3" points="984.12 481.58 984.12 584.1 1091.7 587.9 1091.7 489.49 984.12 481.58"/>
      <polygon class="cls-3" points="1102.62 489.49 1102.62 587.9 1200.05 592.84 1200.87 496.45 1102.62 489.49"/>
      <polygon class="cls-3" points="1229.03 499.62 1229.03 595.49 1387.87 606.41 1387.87 512.43 1229.03 499.62"/>
      <polygon class="cls-3" points="984.12 606.41 984.12 708.13 1091.7 712.25 1091.7 610.36 984.12 606.41"/>
      <polygon class="cls-3" points="1097.88 613.84 1097.88 712.25 1200.87 715.27 1200.83 620.19 1097.88 613.84"/>
      <polygon class="cls-3" points="1226.49 622.07 1226.49 715.41 1385.49 725.06 1387.87 632.99 1226.49 622.07"/>
      <polygon class="cls-3" points="984.12 731.86 1091.7 734.4 1091.7 835.65 984.12 835.65 984.12 731.86"/>
      <polygon class="cls-3" points="1097.88 735.66 1097.88 835.65 1202.76 835.65 1202.76 738.83 1097.88 735.66"/>
      <polygon class="cls-3" points="1222.7 743.57 1222.7 835.65 1382.64 841.82 1382.64 748.32 1222.7 743.57"/>

      <rect class="cls-3" x="984.12" y="854.63" width="107.58" height="100.62"/>

      <polygon class="cls-3" points="1097.88 854.63 1097.88 955.25 1202.76 955.25 1202.76 859.06 1097.88 854.63"/>

      <rect class="cls-3" x="1222.7" y="865.55" width="159.95" height="89.7"/>
      <rect class="cls-3" x="984.12" y="980.41" width="105.68" height="101.09"/>

      <polygon class="cls-3" points="1097.88 980.41 1097.88 1081.5 1197.54 1078.65 1197.54 980.41 1097.88 980.41"/>
      <polygon class="cls-3" points="1219.38 984.2 1219.38 1076.28 1379.32 1073.43 1379.32 984.2 1219.38 984.2"/>
      <polygon class="cls-3" points="1219.38 1101.43 1379.32 1101.43 1379.32 1195.72 1219.38 1199.2 1219.38 1101.43"/>

      <rect class="cls-3" x="981.59" y="1101.43" width="105.05" height="99.99"/>

      <polygon class="cls-3" points="1093.6 1101.43 1093.6 1201.42 1195.8 1199.2 1195.8 1101.43 1093.6 1101.43"/>
      <polygon class="cls-3" points="981.59 1224.2 1086.64 1221.67 1086.64 1322.61 981.59 1328.3 981.59 1224.2"/>
      <polygon class="cls-3" points="1093.6 1221.67 1093.6 1322.61 1195.8 1317.23 1195.8 1220.09 1093.6 1221.67"/>
      <polygon class="cls-3" points="1217.48 1220.09 1217.48 1316.91 1379.32 1308.37 1379.32 1213.44 1217.48 1220.09"/>
      <polygon class="cls-3" points="222.68 278.13 222.68 393.94 365.85 402.16 365.85 292.05 222.68 278.13"/>
      <polygon class="cls-3" points="380.41 292.05 380.41 402.16 507.45 409.76 507.45 303.44 380.41 292.05"/>
      <polygon class="cls-3" points="222.68 416.8 222.68 532.37 368.86 539.49 368.86 428.43 222.68 416.8"/>
      <polygon class="cls-3" points="380.41 430.96 383.05 542.45 504.6 548.03 504.6 440.13 380.41 430.96"/>
      <polygon class="cls-3" points="222.68 556.57 222.68 673.01 365.85 677.81 365.85 566.42 222.68 556.57"/>
      <polygon class="cls-3" points="380.41 567.33 380.41 678.07 501.75 682.5 501.75 576.98 380.41 567.33"/>
      <polygon class="cls-3" points="368.86 814.76 226.95 810.02 226.95 697.53 368.86 705.6 368.86 814.76"/>
      <polygon class="cls-3" points="382.62 705.13 382.62 814.76 504.6 817.61 504.6 710.82 382.62 705.13"/>
      <polygon class="cls-3" points="368.86 839.44 226.95 833.75 226.95 955.25 368.86 955.25 368.86 839.44"/>
      <polygon class="cls-3" points="380.41 840.71 380.41 955.25 504.6 955.25 504.6 843.87 380.41 840.71"/>

      <rect class="cls-3" x="226.95" y="973.6" width="141.91" height="115.81"/>

      <polygon class="cls-3" points="380.41 973.6 380.41 1089.41 504.6 1086.72 504.6 973.6 380.41 973.6"/>
      <polygon class="cls-3" points="226.95 1112.82 226.95 1223.41 370.76 1221.99 370.76 1112.82 226.95 1112.82"/>
      <polygon class="cls-3" points="380.41 1112.82 380.41 1221.51 511.96 1219.61 510.77 1112.82 380.41 1112.82"/>
      <polygon class="cls-3" points="226.95 1247.14 226.95 1359.63 370.76 1352.51 370.76 1245.24 226.95 1247.14"/>
      <polygon class="cls-3" points="382.62 1245.24 382.62 1353.46 514.78 1345.7 514.09 1241.16 382.62 1245.24"/>
      <polygon class="cls-3" points="926.06 358.02 804.63 351.22 804.63 444.88 922.74 452.47 926.06 358.02"/>
      <polygon class="cls-3" points="923.06 484.59 804.63 476.58 804.63 572.85 923.06 577.3 923.06 484.59"/>
      <polygon class="cls-3" points="927.8 606.57 804.63 601.66 804.63 699.79 924.64 701.33 927.8 606.57"/>
      <polygon class="cls-3" points="925.11 731.86 804.63 731.55 804.63 826.47 923.21 824.26 925.11 731.86"/>
      <polygon class="cls-3" points="925.51 853.9 804.63 852.74 804.63 948.92 923.13 947.4 925.51 853.9"/>
      <polygon class="cls-3" points="925.51 977.3 804.12 979.06 804.12 1070.98 925.51 1069.22 925.51 977.3"/>
      <polygon class="cls-3" points="923.61 1098.33 804.12 1100.09 804.12 1200.37 920.76 1195.62 923.61 1098.33"/>
      <polygon class="cls-3" points="921.71 1218.56 804.12 1220.33 804.12 1315.57 921.71 1313.8 921.71 1218.56"/>
      <polygon class="cls-3" points="625.14 335.75 514.57 327.02 514.57 430.96 625.14 438.27 625.14 335.75"/>
      <polygon class="cls-3" points="623.7 459.57 514.57 454.37 514.57 564.48 623.7 566.52 623.7 459.57"/>
      <polygon class="cls-3" points="623.7 590.88 514.57 586.47 514.57 691.84 623.7 696.72 623.7 590.88"/>
      <polygon class="cls-3" points="623.7 725.04 514.57 723 514.57 824.89 623.7 826.92 623.7 725.04"/>
      <polygon class="cls-3" points="623.7 849.78 514.57 846.09 514.57 955.25 623.7 958.94 623.7 849.78"/>
      <polygon class="cls-3" points="623.7 980.99 514.57 977.3 514.57 1081.5 623.7 1085.19 623.7 980.99"/>
      <polygon class="cls-3" points="623.95 1107.52 519 1108.39 519 1215.97 623.63 1215.1 623.95 1107.52"/>
      <polygon class="cls-3" points="626.64 1230.13 519 1233.85 519 1339.22 626.64 1335.5 626.64 1230.13"/>

      <rect class="cls-2" x=".5" y=".5" width="1600" height="1600"/>
      
      <g>
        <text class="cls-1" transform="translate(260.34 1330.76)"><tspan x="0" y="0">1405</tspan></text>
        <text class="cls-1" transform="translate(260.34 1052.22)"><tspan x="0" y="0">1605</tspan></text>
        <text class="cls-1" transform="translate(260.34 1196.7)"><tspan x="0" y="0">1505</tspan></text>
        <text class="cls-1" transform="translate(253.71 917.6)"><tspan x="0" y="0">1705</tspan></text>
        <text class="cls-1" transform="translate(253.71 649.06)"><tspan x="0" y="0">1905</tspan></text>
        <text class="cls-1" transform="translate(253.71 783.54)"><tspan x="0" y="0">1805</tspan></text>
        <text class="cls-1" transform="translate(252.75 488.56)"><tspan x="0" y="0">2005</tspan></text>
        <text class="cls-1" transform="translate(252.75 354.49)"><tspan x="0" y="0">2105</tspan></text>
        <text class="cls-1" transform="translate(410.84 1325.1)"><tspan x="0" y="0">1406</tspan></text>
        <text class="cls-1" transform="translate(400.83 1050.96)"><tspan x="0" y="0">1606</tspan></text>
        <text class="cls-1" transform="translate(406 1195.06)"><tspan x="0" y="0">1506</tspan></text>
        <text class="cls-1" transform="translate(400.83 920.97)"><tspan x="0" y="0">1706</tspan></text>
        <text class="cls-1" transform="translate(403.44 643.24)"><tspan x="0" y="0">1906</tspan></text>
        <text class="cls-1" transform="translate(403.44 788.12)"><tspan x="0" y="0">1806</tspan></text>
        <text class="cls-1" transform="translate(401.15 502.39)"><tspan x="0" y="0">2006</tspan></text>
        <text class="cls-1" transform="translate(401.15 370.36)"><tspan x="0" y="0">2106</tspan></text>
        <text class="cls-1" transform="translate(531.46 1312.27)"><tspan x="0" y="0">1407</tspan></text>
        <text class="cls-1" transform="translate(530.98 1045.14)"><tspan x="0" y="0">1607</tspan></text>
        <text class="cls-1" transform="translate(526.62 1186.04)"><tspan x="0" y="0">1507</tspan></text>
        <text class="cls-1" transform="translate(530.98 926.52)"><tspan x="0" y="0">1707</tspan></text>
        <text class="cls-1" transform="translate(533.59 664.55)"><tspan x="0" y="0">1907</tspan></text>
        <text class="cls-1" transform="translate(525.03 794.2)"><tspan x="0" y="0">1807</tspan></text>
        <text class="cls-1" transform="translate(531.3 523.7)"><tspan x="0" y="0">2007</tspan></text>
        <text class="cls-1" transform="translate(531.3 391.68)"><tspan x="0" y="0">2107</tspan></text>
        <text class="cls-1" transform="translate(828.03 1295.93)"><tspan x="0" y="0">1408</tspan></text>
        <text class="cls-1" transform="translate(831.87 1036.99)"><tspan x="0" y="0">1608</tspan></text>
        <text class="cls-1" transform="translate(823.19 1174.13)"><tspan x="0" y="0">1508</tspan></text>
        <text class="cls-1" transform="translate(831.87 928.38)"><tspan x="0" y="0">1708</tspan></text>
        <text class="cls-1" transform="translate(830.16 672.54)"><tspan x="0" y="0">1908</tspan></text>
        <text class="cls-1" transform="translate(825.92 796.05)"><tspan x="0" y="0">1808</tspan></text>
        <text class="cls-1" transform="translate(827.88 548.28)"><tspan x="0" y="0">2008</tspan></text>
        <text class="cls-1" transform="translate(827.88 416.26)"><tspan x="0" y="0">2108</tspan></text>
        <text class="cls-1" transform="translate(1004.76 1302.37)"><tspan x="0" y="0">1409</tspan></text>
        <text class="cls-1" transform="translate(1005.6 1043.42)"><tspan x="0" y="0">1609</tspan></text>
        <text class="cls-1" transform="translate(999.92 1180.56)"><tspan x="0" y="0">1509</tspan></text>
        <text class="cls-1" transform="translate(1008.6 929.27)"><tspan x="0" y="0">1709</tspan></text>
        <text class="cls-1" transform="translate(1006.89 673.43)"><tspan x="0" y="0">1909</tspan></text>
        <text class="cls-1" transform="translate(1002.65 796.94)"><tspan x="0" y="0">1809</tspan></text>
        <text class="cls-1" transform="translate(1004.6 552.85)"><tspan x="0" y="0">2009</tspan></text>
        <text class="cls-1" transform="translate(1004.6 420.83)"><tspan x="0" y="0">2109</tspan></text>
        <text class="cls-1" transform="translate(1113.35 1301.35)"><tspan x="0" y="0">1410</tspan></text>
        <text class="cls-1" transform="translate(1116.17 1054.14)"><tspan x="0" y="0">1610</tspan></text>
        <text class="cls-1" transform="translate(1113.35 1177.37)"><tspan x="0" y="0">1510</tspan></text>
        <text class="cls-1" transform="translate(1119.06 929.64)"><tspan x="0" y="0">1710</tspan></text>
        <text class="cls-1" transform="translate(1122.74 681.96)"><tspan x="0" y="0">1910</tspan></text>
        <text class="cls-1" transform="translate(1118.5 805.47)"><tspan x="0" y="0">1810</tspan></text>
        <text class="cls-1" transform="translate(1120.45 561.38)"><tspan x="0" y="0">2010</tspan></text>
        <text class="cls-1" transform="translate(1122.13 436.74)"><tspan x="0" y="0">2110</tspan></text>
        <text class="cls-1" transform="translate(1269.43 1293.1)"><tspan x="0" y="0">1411</tspan></text>
        <text class="cls-1" transform="translate(1263.25 1041.97)"><tspan x="0" y="0">1611</tspan></text>
        <text class="cls-1" transform="translate(1269.44 1185.2)"><tspan x="0" y="0">1511</tspan></text>
        <text class="cls-1" transform="translate(1275.15 937.47)"><tspan x="0" y="0">1711</tspan></text>
        <text class="cls-1" transform="translate(1278.82 691.69)"><tspan x="0" y="0">1911</tspan></text>
        <text class="cls-1" transform="translate(1274.58 815.2)"><tspan x="0" y="0">1811</tspan></text>
        <text class="cls-1" transform="translate(1276.53 571.11)"><tspan x="0" y="0">2011</tspan></text>
        <text class="cls-1" transform="translate(1278.22 446.47)"><tspan x="0" y="0">2111</tspan></text>
      </g>
    </g>
  </g>
</svg>