<?xml version="1.0" encoding="UTF-8"?>
<svg xmlns="http://www.w3.org/2000/svg" viewBox="0 0 1601 1601">
  <defs>
    <style>
      .cls-1 {
        fill: #fff;
        font-family: MyriadPro-Regular, 'Myriad Pro';
        font-size: 39.15px;
      }

      .cls-2, .cls-3 {
        fill: none;
        stroke: #fff;
        stroke-miterlimit: 10;
      }

      .cls-4 {
        fill: #00923d;
        mix-blend-mode: multiply;
      }

      .cls-3 {
        stroke-width: 5px;
      }

      .cls-5 {
        isolation: isolate;
      }
    </style>
  </defs>
  <g class="cls-5">
    <g id="Capa_2" data-name="Capa 2">
      <g id="VS_-_Front" data-name="VS - Front">
        <g>
          <rect class="cls-2" x=".5" y=".5" width="1600" height="1600"/>
          <g>
            <g>
              <polygon class="cls-4" points="682.54 251.68 469.42 189.9 469.42 303.36 682.54 362.35 682.54 251.68"/>
              <polygon class="cls-3" points="682.54 251.68 469.42 189.9 469.42 303.36 682.54 362.35 682.54 251.68"/>
            </g>
            <g>
              <polygon class="cls-4" points="682.54 693.6 469.42 645.77 469.42 759.97 682.54 803.81 682.54 693.6"/>
              <polygon class="cls-3" points="682.54 693.6 469.42 645.77 469.42 759.97 682.54 803.81 682.54 693.6"/>
            </g>
            <g>
              <polygon class="cls-4" points="682.54 583.39 469.42 531.57 469.42 645.77 682.54 693.6 682.54 583.39"/>
              <polygon class="cls-3" points="682.54 583.39 469.42 531.57 469.42 645.77 682.54 693.6 682.54 583.39"/>
            </g>
            <g>
              <polygon class="cls-4" points="682.54 803.81 469.42 759.97 469.42 874.26 682.54 914.52 682.54 803.81"/>
              <polygon class="cls-3" points="682.54 803.81 469.42 759.97 469.42 874.26 682.54 914.52 682.54 803.81"/>
            </g>
            <g>
              <polygon class="cls-4" points="682.54 473.27 469.42 417.87 469.42 531.57 682.54 583.39 682.54 473.27"/>
              <polygon class="cls-3" points="682.54 473.27 469.42 417.87 469.42 531.57 682.54 583.39 682.54 473.27"/>
            </g>
            <g>
              <polygon class="cls-4" points="682.54 362.35 469.42 303.36 469.42 417.87 682.54 473.27 682.54 362.35"/>
              <polygon class="cls-3" points="682.54 362.35 469.42 303.36 469.42 417.87 682.54 473.27 682.54 362.35"/>
            </g>
            <g>
              <polygon class="cls-4" points="682.54 914.52 469.42 874.26 469.42 988.55 682.54 1025.22 682.54 914.52"/>
              <polygon class="cls-3" points="682.54 914.52 469.42 874.26 469.42 988.55 682.54 1025.22 682.54 914.52"/>
            </g>
            <g>
              <polygon class="cls-4" points="682.54 1135.93 469.42 1102.84 469.42 1217.13 682.54 1246.63 682.54 1135.93"/>
              <polygon class="cls-3" points="682.54 1135.93 469.42 1102.84 469.42 1217.13 682.54 1246.63 682.54 1135.93"/>
            </g>
            <g>
              <polygon class="cls-4" points="682.54 1025.22 469.42 988.55 469.42 1102.84 682.54 1135.93 682.54 1025.22"/>
              <polygon class="cls-3" points="682.54 1025.22 469.42 988.55 469.42 1102.84 682.54 1135.93 682.54 1025.22"/>
            </g>
            <g>
              <polygon class="cls-4" points="682.54 1246.63 469.42 1217.13 469.42 1331.43 682.54 1357.34 682.54 1246.63"/>
              <polygon class="cls-3" points="682.54 1246.63 469.42 1217.13 469.42 1331.43 682.54 1357.34 682.54 1246.63"/>
            </g>
            <g>
              <polygon class="cls-4" points="682.54 1357.34 783.57 1369.62 783.57 1260.62 682.54 1246.63 682.54 1357.34"/>
              <polygon class="cls-3" points="682.54 1357.34 783.57 1369.62 783.57 1260.62 682.54 1246.63 682.54 1357.34"/>
            </g>
            <g>
              <polygon class="cls-4" points="682.54 1135.93 783.57 1151.61 783.57 1042.61 682.54 1025.22 682.54 1135.93"/>
              <polygon class="cls-3" points="682.54 1135.93 783.57 1151.61 783.57 1042.61 682.54 1025.22 682.54 1135.93"/>
            </g>
            <g>
              <polygon class="cls-4" points="682.54 1025.22 783.57 1042.61 783.57 933.6 682.54 914.52 682.54 1025.22"/>
              <polygon class="cls-3" points="682.54 1025.22 783.57 1042.61 783.57 933.6 682.54 914.52 682.54 1025.22"/>
            </g>
            <g>
              <polygon class="cls-4" points="682.54 1246.63 783.57 1260.62 783.57 1151.61 682.54 1135.93 682.54 1246.63"/>
              <polygon class="cls-3" points="682.54 1246.63 783.57 1260.62 783.57 1151.61 682.54 1135.93 682.54 1246.63"/>
            </g>
            <g>
              <polygon class="cls-4" points="682.54 914.52 783.57 933.6 783.57 824.6 682.54 803.81 682.54 914.52"/>
              <polygon class="cls-3" points="682.54 914.52 783.57 933.6 783.57 824.6 682.54 803.81 682.54 914.52"/>
            </g>
            <g>
              <polygon class="cls-4" points="682.54 803.81 783.57 824.6 783.57 716.28 682.54 693.6 682.54 803.81"/>
              <polygon class="cls-3" points="682.54 803.81 783.57 824.6 783.57 716.28 682.54 693.6 682.54 803.81"/>
            </g>
            <g>
              <polygon class="cls-4" points="682.54 583.39 783.57 607.96 783.57 499.54 682.54 473.27 682.54 583.39"/>
              <polygon class="cls-3" points="682.54 583.39 783.57 607.96 783.57 499.54 682.54 473.27 682.54 583.39"/>
            </g>
            <g>
              <polygon class="cls-4" points="682.54 693.6 783.57 716.28 783.57 607.96 682.54 583.39 682.54 693.6"/>
              <polygon class="cls-3" points="682.54 693.6 783.57 716.28 783.57 607.96 682.54 583.39 682.54 693.6"/>
            </g>
            <g>
              <polygon class="cls-4" points="682.54 473.27 783.57 499.54 783.57 390.32 682.54 362.35 682.54 473.27"/>
              <polygon class="cls-3" points="682.54 473.27 783.57 499.54 783.57 390.32 682.54 362.35 682.54 473.27"/>
            </g>
            <g>
              <polygon class="cls-4" points="682.54 362.35 783.57 390.32 783.57 280.98 682.54 251.68 682.54 362.35"/>
              <polygon class="cls-3" points="682.54 362.35 783.57 390.32 783.57 280.98 682.54 251.68 682.54 362.35"/>
            </g>
            <g>
              <polygon class="cls-4" points="783.57 1151.61 884.61 1167.3 884.61 1059.99 783.57 1042.61 783.57 1151.61"/>
              <polygon class="cls-3" points="783.57 1151.61 884.61 1167.3 884.61 1059.99 783.57 1042.61 783.57 1151.61"/>
            </g>
            <g>
              <polygon class="cls-4" points="783.57 1260.62 884.61 1274.6 884.61 1167.3 783.57 1151.61 783.57 1260.62"/>
              <polygon class="cls-3" points="783.57 1260.62 884.61 1274.6 884.61 1167.3 783.57 1151.61 783.57 1260.62"/>
            </g>
            <g>
              <polygon class="cls-4" points="783.57 1369.62 884.61 1381.9 884.61 1274.6 783.57 1260.62 783.57 1369.62"/>
              <polygon class="cls-3" points="783.57 1369.62 884.61 1381.9 884.61 1274.6 783.57 1260.62 783.57 1369.62"/>
            </g>
            <g>
              <polygon class="cls-4" points="783.57 1042.61 884.61 1059.99 884.61 952.69 783.57 933.6 783.57 1042.61"/>
              <polygon class="cls-3" points="783.57 1042.61 884.61 1059.99 884.61 952.69 783.57 933.6 783.57 1042.61"/>
            </g>
            <g>
              <polygon class="cls-4" points="783.57 499.54 884.61 525.81 884.61 418.28 783.57 390.32 783.57 499.54"/>
              <polygon class="cls-3" points="783.57 499.54 884.61 525.81 884.61 418.28 783.57 390.32 783.57 499.54"/>
            </g>
            <g>
              <polygon class="cls-4" points="783.57 933.6 884.61 952.69 884.61 845.39 783.57 824.6 783.57 933.6"/>
              <polygon class="cls-3" points="783.57 933.6 884.61 952.69 884.61 845.39 783.57 824.6 783.57 933.6"/>
            </g>
            <g>
              <polygon class="cls-4" points="783.57 607.96 884.61 632.52 884.61 525.81 783.57 499.54 783.57 607.96"/>
              <polygon class="cls-3" points="783.57 607.96 884.61 632.52 884.61 525.81 783.57 499.54 783.57 607.96"/>
            </g>
            <g>
              <polygon class="cls-4" points="783.57 824.6 884.61 845.39 884.61 738.95 783.57 716.28 783.57 824.6"/>
              <polygon class="cls-3" points="783.57 824.6 884.61 845.39 884.61 738.95 783.57 716.28 783.57 824.6"/>
            </g>
            <g>
              <polygon class="cls-4" points="783.57 716.28 884.61 738.95 884.61 632.52 783.57 607.96 783.57 716.28"/>
              <polygon class="cls-3" points="783.57 716.28 884.61 738.95 884.61 632.52 783.57 607.96 783.57 716.28"/>
            </g>
            <g>
              <polygon class="cls-4" points="783.57 390.32 884.61 418.28 884.61 310.27 783.57 280.98 783.57 390.32"/>
              <polygon class="cls-3" points="783.57 390.32 884.61 418.28 884.61 310.27 783.57 280.98 783.57 390.32"/>
            </g>
            <g>
              <polygon class="cls-4" points="1171.08 1087.56 1042.79 1066.97 1042.79 1172.74 1171.08 1191.1 1171.08 1087.56"/>
              <polygon class="cls-3" points="1171.08 1087.56 1042.79 1066.97 1042.79 1172.74 1171.08 1191.1 1171.08 1087.56"/>
            </g>
            <g>
              <polygon class="cls-4" points="1171.08 1296.46 1042.79 1280.04 1042.79 1385.82 1171.08 1400.57 1171.08 1296.46"/>
              <polygon class="cls-3" points="1171.08 1296.46 1042.79 1280.04 1042.79 1385.82 1171.08 1400.57 1171.08 1296.46"/>
            </g>
            <g>
              <polygon class="cls-4" points="1171.08 1191.1 1042.79 1172.74 1042.79 1280.04 1171.08 1296.46 1171.08 1191.1"/>
              <polygon class="cls-3" points="1171.08 1191.1 1042.79 1172.74 1042.79 1280.04 1171.08 1296.46 1171.08 1191.1"/>
            </g>
            <g>
              <polygon class="cls-4" points="1171.08 983.62 1042.79 961.08 1042.79 1066.97 1171.08 1087.56 1171.08 983.62"/>
              <polygon class="cls-3" points="1171.08 983.62 1042.79 961.08 1042.79 1066.97 1171.08 1087.56 1171.08 983.62"/>
            </g>
            <g>
              <polygon class="cls-4" points="1171.08 878.33 1042.79 853.57 1042.79 961.08 1171.08 983.62 1171.08 878.33"/>
              <polygon class="cls-3" points="1171.08 878.33 1042.79 853.57 1042.79 961.08 1171.08 983.62 1171.08 878.33"/>
            </g>
            <g>
              <polygon class="cls-4" points="1171.08 669.01 1042.79 640.07 1042.79 746.49 1171.08 772.65 1171.08 669.01"/>
              <polygon class="cls-3" points="1171.08 669.01 1042.79 640.07 1042.79 746.49 1171.08 772.65 1171.08 669.01"/>
            </g>
            <g>
              <polygon class="cls-4" points="1171.08 564.25 1042.79 534.19 1042.79 640.07 1171.08 669.01 1171.08 564.25"/>
              <polygon class="cls-3" points="1171.08 564.25 1042.79 534.19 1042.79 640.07 1171.08 669.01 1171.08 564.25"/>
            </g>
            <g>
              <polygon class="cls-4" points="1171.08 772.65 1042.79 746.49 1042.79 853.57 1171.08 878.33 1171.08 772.65"/>
              <polygon class="cls-3" points="1171.08 772.65 1042.79 746.49 1042.79 853.57 1171.08 878.33 1171.08 772.65"/>
            </g>
            <g>
              <polygon class="cls-4" points="1171.08 460.51 1042.79 427.67 1042.79 534.19 1171.08 564.25 1171.08 460.51"/>
              <polygon class="cls-3" points="1171.08 460.51 1042.79 427.67 1042.79 534.19 1171.08 564.25 1171.08 460.51"/>
            </g>
            <g>
              <polygon class="cls-4" points="1171.08 356.42 1042.79 321.08 1042.79 427.67 1171.08 460.51 1171.08 356.42"/>
              <polygon class="cls-3" points="1171.08 356.42 1042.79 321.08 1042.79 427.67 1171.08 460.51 1171.08 356.42"/>
            </g>
            <g>
              <polygon class="cls-4" points="1171.08 564.25 1356.17 607.61 1356.17 507.89 1171.08 460.51 1171.08 564.25"/>
              <polygon class="cls-3" points="1171.08 564.25 1356.17 607.61 1356.17 507.89 1171.08 460.51 1171.08 564.25"/>
            </g>
            <g>
              <polygon class="cls-4" points="1171.08 460.51 1356.17 507.89 1356.17 407.41 1171.08 356.42 1171.08 460.51"/>
              <polygon class="cls-3" points="1171.08 460.51 1356.17 507.89 1356.17 407.41 1171.08 356.42 1171.08 460.51"/>
            </g>
            <g>
              <polygon class="cls-4" points="1171.08 669.01 1356.17 710.77 1356.17 607.61 1171.08 564.25 1171.08 669.01"/>
              <polygon class="cls-3" points="1171.08 669.01 1356.17 710.77 1356.17 607.61 1171.08 564.25 1171.08 669.01"/>
            </g>
            <g>
              <polygon class="cls-4" points="1171.08 878.33 1356.17 914.07 1356.17 810.39 1171.08 772.65 1171.08 878.33"/>
              <polygon class="cls-3" points="1171.08 878.33 1356.17 914.07 1356.17 810.39 1171.08 772.65 1171.08 878.33"/>
            </g>
            <g>
              <polygon class="cls-4" points="1171.08 983.62 1356.17 1016.14 1356.17 914.07 1171.08 878.33 1171.08 983.62"/>
              <polygon class="cls-3" points="1171.08 983.62 1356.17 1016.14 1356.17 914.07 1171.08 878.33 1171.08 983.62"/>
            </g>
            <g>
              <polygon class="cls-4" points="1171.08 772.65 1356.17 810.39 1356.17 710.77 1171.08 669.01 1171.08 772.65"/>
              <polygon class="cls-3" points="1171.08 772.65 1356.17 810.39 1356.17 710.77 1171.08 669.01 1171.08 772.65"/>
            </g>
            <g>
              <polygon class="cls-4" points="1171.08 1087.56 1356.17 1117.28 1356.17 1016.14 1171.08 983.62 1171.08 1087.56"/>
              <polygon class="cls-3" points="1171.08 1087.56 1356.17 1117.28 1356.17 1016.14 1171.08 983.62 1171.08 1087.56"/>
            </g>
            <g>
              <polygon class="cls-4" points="1171.08 1400.57 1356.17 1421.85 1356.17 1320.15 1171.08 1296.46 1171.08 1400.57"/>
              <polygon class="cls-3" points="1171.08 1400.57 1356.17 1421.85 1356.17 1320.15 1171.08 1296.46 1171.08 1400.57"/>
            </g>
            <g>
              <polygon class="cls-4" points="1171.08 1191.1 1356.17 1217.6 1356.17 1117.28 1171.08 1087.56 1171.08 1191.1"/>
              <polygon class="cls-3" points="1171.08 1191.1 1356.17 1217.6 1356.17 1117.28 1171.08 1087.56 1171.08 1191.1"/>
            </g>
            <g>
              <polygon class="cls-4" points="1171.08 1296.46 1356.17 1320.15 1356.17 1217.6 1171.08 1191.1 1171.08 1296.46"/>
              <polygon class="cls-3" points="1171.08 1296.46 1356.17 1320.15 1356.17 1217.6 1171.08 1191.1 1171.08 1296.46"/>
            </g>
          </g>
          <g>
            <text class="cls-1" transform="translate(1220.15 1271.8)"><tspan x="0" y="0">1110</tspan></text>
            <text class="cls-1" transform="translate(540.26 1196.25)"><tspan x="0" y="0">1102</tspan></text>
            <text class="cls-1" transform="translate(540.26 1308.13)"><tspan x="0" y="0">1002</tspan></text>
            <text class="cls-1" transform="translate(692.89 1209.65)"><tspan x="0" y="0">1104</tspan></text>
            <text class="cls-1" transform="translate(793.93 1232.37)"><tspan x="0" y="0">1106</tspan></text>
            <text class="cls-1" transform="translate(692.89 1318.13)"><tspan x="0" y="0">1004</tspan></text>
            <text class="cls-1" transform="translate(793.93 1340.31)"><tspan x="0" y="0">1006</tspan></text>
            <text class="cls-1" transform="translate(1220.15 1168.6)"><tspan x="0" y="0">1210</tspan></text>
            <text class="cls-1" transform="translate(1069.87 1145.09)"><tspan x="0" y="0">1208</tspan></text>
            <text class="cls-1" transform="translate(1069.87 1249.25)"><tspan x="0" y="0">1108</tspan></text>
            <text class="cls-1" transform="translate(1227.9 1375)"><tspan x="0" y="0">1010</tspan></text>
            <text class="cls-1" transform="translate(1069.87 1353.42)"><tspan x="0" y="0">1008</tspan></text>
            <text class="cls-1" transform="translate(794.45 1124.43)"><tspan x="0" y="0">1206</tspan></text>
            <text class="cls-1" transform="translate(690.54 1101.18)"><tspan x="0" y="0">1204</tspan></text>
            <text class="cls-1" transform="translate(540.26 1084.37)"><tspan x="0" y="0">1202</tspan></text>
            <text class="cls-1" transform="translate(1220.15 1065.4)"><tspan x="0" y="0">1310</tspan></text>
            <text class="cls-1" transform="translate(1070.87 1040.93)"><tspan x="0" y="0">1308</tspan></text>
            <text class="cls-1" transform="translate(795.45 1016.49)"><tspan x="0" y="0">1306</tspan></text>
            <text class="cls-1" transform="translate(690.54 992.7)"><tspan x="0" y="0">1304</tspan></text>
            <text class="cls-1" transform="translate(540.26 972.49)"><tspan x="0" y="0">1302</tspan></text>
            <text class="cls-1" transform="translate(1220.15 962.2)"><tspan x="0" y="0">1410</tspan></text>
            <text class="cls-1" transform="translate(1070.87 936.76)"><tspan x="0" y="0">1408</tspan></text>
            <text class="cls-1" transform="translate(795.45 908.55)"><tspan x="0" y="0">1406</tspan></text>
            <text class="cls-1" transform="translate(690.54 884.23)"><tspan x="0" y="0">1404</tspan></text>
            <text class="cls-1" transform="translate(540.26 860.61)"><tspan x="0" y="0">1402</tspan></text>
            <text class="cls-1" transform="translate(1220.15 859)"><tspan x="0" y="0">1510</tspan></text>
            <text class="cls-1" transform="translate(1070.87 832.6)"><tspan x="0" y="0">1508</tspan></text>
            <text class="cls-1" transform="translate(795.45 800.62)"><tspan x="0" y="0">1506</tspan></text>
            <text class="cls-1" transform="translate(690.54 775.76)"><tspan x="0" y="0">1504</tspan></text>
            <text class="cls-1" transform="translate(540.26 748.74)"><tspan x="0" y="0">1502</tspan></text>
            <text class="cls-1" transform="translate(1220.15 755.8)"><tspan x="0" y="0">1610</tspan></text>
            <text class="cls-1" transform="translate(1070.87 728.43)"><tspan x="0" y="0">1608</tspan></text>
            <text class="cls-1" transform="translate(795.45 692.68)"><tspan x="0" y="0">1606</tspan></text>
            <text class="cls-1" transform="translate(690.54 667.28)"><tspan x="0" y="0">1604</tspan></text>
            <text class="cls-1" transform="translate(540.26 636.86)"><tspan x="0" y="0">1602</tspan></text>
            <text class="cls-1" transform="translate(1220.15 652.6)"><tspan x="0" y="0">1710</tspan></text>
            <text class="cls-1" transform="translate(1070.87 624.27)"><tspan x="0" y="0">1708</tspan></text>
            <text class="cls-1" transform="translate(795.45 584.74)"><tspan x="0" y="0">1706</tspan></text>
            <text class="cls-1" transform="translate(690.54 558.81)"><tspan x="0" y="0">1704</tspan></text>
            <text class="cls-1" transform="translate(540.26 524.98)"><tspan x="0" y="0">1702</tspan></text>
            <text class="cls-1" transform="translate(1220.15 549.4)"><tspan x="0" y="0">1810</tspan></text>
            <text class="cls-1" transform="translate(1070.87 520.11)"><tspan x="0" y="0">1808</tspan></text>
            <text class="cls-1" transform="translate(795.45 476.8)"><tspan x="0" y="0">1806</tspan></text>
            <text class="cls-1" transform="translate(690.54 450.33)"><tspan x="0" y="0">1804</tspan></text>
            <text class="cls-1" transform="translate(540.26 413.11)"><tspan x="0" y="0">1802</tspan></text>
            <text class="cls-1" transform="translate(1220.15 446.2)"><tspan x="0" y="0">1910</tspan></text>
            <text class="cls-1" transform="translate(1070.87 415.94)"><tspan x="0" y="0">1908</tspan></text>
            <text class="cls-1" transform="translate(795.45 368.86)"><tspan x="0" y="0">1906</tspan></text>
            <text class="cls-1" transform="translate(690.54 341.86)"><tspan x="0" y="0">1904</tspan></text>
            <text class="cls-1" transform="translate(540.26 301.23)"><tspan x="0" y="0">1902</tspan></text>
          </g>
        </g>
      </g>
    </g>
  </g>
</svg>